<svg width="476" height="359" viewBox="0 0 476 359" fill="none" xmlns="http://www.w3.org/2000/svg">
<g clip-path="url(#clip0_1_3)">
<mask id="mask0_1_3" style="mask-type:luminance" maskUnits="userSpaceOnUse" x="0" y="0" width="476" height="359">
<path d="M476 0H0V358.299H476V0Z" fill="white"/>
</mask>
<g mask="url(#mask0_1_3)">
<path d="M294.905 62.7774H177.916C173.427 62.7774 169.775 59.1251 169.775 54.6364V8.14035C169.775 3.65165 173.427 0 177.916 0H294.905C299.394 0 303.046 3.65165 303.046 8.14035V54.6364C303.046 59.1251 299.394 62.7774 294.905 62.7774Z" fill="#757575"/>
<path d="M294.905 205.166H177.916C173.427 205.166 169.775 201.514 169.775 197.025V150.529C169.775 146.041 173.427 142.389 177.916 142.389H294.905C299.394 142.389 303.046 146.041 303.046 150.529V197.025C303.046 201.514 299.394 205.166 294.905 205.166Z" fill="#D8D8D8"/>
<path d="M294.211 133.142H248.218C243.494 133.142 239.65 129.298 239.65 124.574V79.9842C239.65 75.2599 243.494 71.4164 248.218 71.4164H294.211C298.935 71.4164 302.779 75.2599 302.779 79.9842V124.574C302.779 129.298 298.935 133.142 294.211 133.142Z" fill="#D8D8D8"/>
<path d="M224.068 133.142H178.076C173.351 133.142 169.508 129.298 169.508 124.574V79.9842C169.508 75.2599 173.351 71.4164 178.076 71.4164H224.068C228.792 71.4164 232.636 75.2599 232.636 79.9842V124.574C232.636 129.298 228.792 133.142 224.068 133.142Z" fill="#D8D8D8"/>
<path d="M476 357.247C476 357.829 475.53 358.299 474.948 358.299H1.05214C0.469954 358.299 0 357.829 0 357.247C0 356.664 0.469954 356.194 1.05214 356.194H474.948C475.53 356.194 476 356.664 476 357.247Z" fill="#2F2E43"/>
<path d="M412.919 318.572L403.227 328.748L392.898 319.2L402.59 309.024L412.919 318.572Z" fill="white"/>
<path d="M420.66 328.995L400.059 350.626C398.298 352.475 396.099 353.936 393.699 354.85L387.956 357.039C386.768 357.492 385.401 357.23 384.472 356.372C383.383 355.365 383.108 353.752 383.802 352.45L389.327 342.086L395.222 321.071L395.286 321.11C396.89 322.098 399.322 323.579 399.496 323.642C402.548 323.75 404.734 322.983 405.992 321.361C408.186 318.532 406.794 314.016 406.78 313.971L406.769 313.936L406.797 313.912C407.436 313.366 408.11 313.147 408.799 313.263C410.262 313.507 411.309 315.15 411.462 315.403C412.835 315.345 417.05 318.647 417.389 318.914C419.459 318.909 420.976 319.399 421.898 320.373C422.705 321.224 423.056 322.432 422.942 323.964C422.805 325.807 421.995 327.593 420.66 328.995Z" fill="#090814"/>
<path d="M401.73 330.288H387.566V344.243H401.73V330.288Z" fill="white"/>
<path d="M399.312 356.937H369.205C366.632 356.937 364.046 356.356 361.727 355.258L356.176 352.629C355.029 352.085 354.287 350.924 354.287 349.669C354.287 348.198 355.292 346.896 356.731 346.504L368.182 343.382L387.771 333.238L387.786 333.311C388.152 335.139 388.72 337.9 388.792 338.068C390.801 340.335 392.865 341.38 394.926 341.174C398.521 340.815 400.911 336.725 400.935 336.684L400.953 336.652L400.99 336.656C401.831 336.742 402.454 337.076 402.841 337.65C403.661 338.868 403.16 340.745 403.078 341.028C404.06 341.975 404.501 347.262 404.535 347.689C405.955 349.172 406.63 350.598 406.541 351.927C406.463 353.089 405.809 354.167 404.597 355.134C403.14 356.296 401.263 356.937 399.312 356.937Z" fill="#090814"/>
<path d="M403.412 154.54L353.224 154.564L336.494 258.93L386.683 318.581L403.412 303.669L363.749 258.93L403.412 154.54Z" fill="#090814"/>
<path d="M373.748 169.925L403.413 154.54V333.494L386.683 333.954L373.748 169.925Z" fill="#090814"/>
<path d="M343.533 196.381L343.528 196.592L343.677 196.743C345.277 198.362 346.291 200.837 346.231 203.614C346.125 208.508 342.775 212.237 338.933 212.154C335.091 212.071 331.906 208.2 332.012 203.305C332.073 200.528 333.194 198.1 334.862 196.552L335.017 196.408L335.021 196.196L335.364 180.405L343.876 180.59L343.533 196.381Z" fill="white" stroke="black"/>
<path d="M389.137 37.2961C389.137 37.2961 402.79 37.2666 397.689 24.1108C392.589 10.9551 383.092 16.8456 383.092 16.8456C383.092 16.8456 379.09 18.9595 379.915 23.6757" fill="#090814"/>
<path d="M367.263 60.9603L367.216 60.6515L366.918 60.558C359.707 58.2964 354.477 51.562 354.477 43.6065C354.477 33.796 362.43 25.8431 372.24 25.8431C382.05 25.8431 390.003 33.796 390.003 43.6065C390.003 49.79 386.843 55.2336 382.048 58.4157L381.717 58.6353L381.856 59.0073C382.915 61.8448 384.429 64.5119 385.671 66.4636C386.293 67.441 386.85 68.2426 387.252 68.8005C387.391 68.9943 387.512 69.1588 387.611 69.2911L370.661 83.4162L367.263 60.9603Z" fill="white" stroke="black"/>
<path d="M381.014 59.0346C381.014 59.0346 383.44 49.7361 379.474 45.4606C375.517 41.1948 375.006 47.8322 375.006 47.8322L372.151 47.2115C372.151 47.2115 372.648 40.7568 367.062 39.6396L370.662 31.9435C370.662 31.9435 356.88 34.6195 356.5 33.2846C353.511 22.7817 382.025 13.8098 389.902 29.8333C402.153 54.7552 381.014 59.0346 381.014 59.0346Z" fill="#090814"/>
<path d="M364.883 75.305C351.623 77.8959 341.671 88.9358 340.464 102.392L332.211 194.415H346.694L364.883 75.305Z" fill="#757575"/>
<path d="M351.189 148.623L348.934 174.606L410.161 156.598L402.7 137.818L416.592 105.919L388.234 65.272L365.596 66.8155L356.849 78.1348" fill="#757575"/>
<path d="M400.693 173.037L400.582 173.217L400.634 173.422C401.196 175.628 400.821 178.276 399.365 180.641C396.799 184.811 392.024 186.335 388.751 184.321C385.478 182.307 384.687 177.357 387.252 173.188C388.708 170.822 390.903 169.294 393.125 168.801L393.331 168.755L393.442 168.575L401.72 155.123L408.971 159.585L400.693 173.037Z" fill="white" stroke="black"/>
<path d="M383.604 65.7865L388.54 65.5817L396.981 71.9607C406.982 73.6663 409.883 74.1444 412.947 80.751C414.235 83.527 415.089 86.4844 415.566 89.5072L422.707 134.731L404.758 177.95L392.865 164.573L405.579 130.783L403.467 122.701" fill="#757575"/>
<path d="M67.2461 121.951L85.6961 298.691" stroke="#263238" stroke-width="2" stroke-miterlimit="10"/>
<path d="M82.7174 264.861L74.3574 256.031" stroke="#263238" stroke-width="2" stroke-miterlimit="10"/>
<path d="M76.8964 258.681C76.8842 257.332 76.5834 256.001 76.0142 254.779C75.445 253.556 74.6206 252.469 73.5964 251.591C71.4564 249.671 60.1564 244.921 59.0864 248.901C57.8864 253.231 69.4564 261.721 76.8964 258.681Z" fill="#92E3A9" stroke="#263238" stroke-miterlimit="10"/>
<path d="M76.8965 258.681L66.1465 251.981" stroke="#263238" stroke-width="0.5" stroke-miterlimit="10"/>
<path d="M84.817 284.961L76.457 276.131" stroke="#263238" stroke-width="2" stroke-miterlimit="10"/>
<path d="M78.9963 278.781C78.9804 277.43 78.6749 276.098 78.1005 274.875C77.526 273.652 76.6959 272.566 75.6663 271.691C73.5263 269.771 62.2263 265.021 61.1563 269.001C59.9863 273.321 71.5963 281.821 78.9963 278.781Z" fill="#92E3A9" stroke="#263238" stroke-miterlimit="10"/>
<path d="M78.9961 278.781L68.2461 272.081" stroke="#263238" stroke-width="0.5" stroke-miterlimit="10"/>
<path d="M77.5963 215.821L69.2363 206.991" stroke="#263238" stroke-width="2" stroke-miterlimit="10"/>
<path d="M71.7765 209.631C71.7605 208.281 71.456 206.95 70.8834 205.727C70.3108 204.504 69.4833 203.418 68.4565 202.541C66.3065 200.621 55.0065 195.871 53.9365 199.851C52.7765 204.231 64.3365 212.671 71.7765 209.631Z" fill="#92E3A9" stroke="#263238" stroke-miterlimit="10"/>
<path d="M71.7773 209.631L61.0273 202.931" stroke="#263238" stroke-width="0.5" stroke-miterlimit="10"/>
<path d="M79.6979 235.921L71.3379 227.091" stroke="#263238" stroke-width="2" stroke-miterlimit="10"/>
<path d="M73.8773 229.731C73.867 228.384 73.569 227.054 73.0033 225.832C72.4377 224.609 71.6174 223.521 70.5973 222.641C68.4573 220.721 57.1573 215.971 56.0873 219.951C54.8673 224.281 66.4273 232.771 73.8773 229.731Z" fill="#92E3A9" stroke="#263238" stroke-miterlimit="10"/>
<path d="M73.877 229.731L63.127 223.031" stroke="#263238" stroke-width="0.5" stroke-miterlimit="10"/>
<path d="M74.1979 183.171L65.8379 174.341" stroke="#263238" stroke-width="2" stroke-miterlimit="10"/>
<path d="M68.3763 176.981C68.3572 175.63 68.0503 174.299 67.4761 173.077C66.9018 171.854 66.0735 170.768 65.0463 169.891C62.8963 167.971 51.5963 163.231 50.5263 167.231C49.3663 171.531 60.9263 180.021 68.3763 176.981Z" fill="#92E3A9" stroke="#263238" stroke-miterlimit="10"/>
<path d="M68.3772 176.981L57.6172 170.281" stroke="#263238" stroke-width="0.5" stroke-miterlimit="10"/>
<path d="M70.7662 150.371L62.4062 141.541" stroke="#263238" stroke-width="2" stroke-miterlimit="10"/>
<path d="M64.947 144.231C64.9337 142.872 64.6276 141.531 64.0495 140.301C63.4714 139.07 62.6349 137.979 61.597 137.101C59.447 135.181 48.147 130.431 47.077 134.411C45.947 138.731 57.507 147.231 64.947 144.231Z" fill="#92E3A9" stroke="#263238" stroke-miterlimit="10"/>
<path d="M64.9473 144.191L54.1973 137.491" stroke="#263238" stroke-width="0.5" stroke-miterlimit="10"/>
<path d="M81.3164 252.971L87.6764 242.601" stroke="#263238" stroke-width="2" stroke-miterlimit="10"/>
<path d="M85.7376 245.721C85.4748 244.395 85.4985 243.028 85.8072 241.712C86.1159 240.396 86.7025 239.162 87.5276 238.091C89.2276 235.771 99.2976 228.791 101.168 232.461C103.208 236.451 93.6476 247.161 85.7376 245.721Z" fill="#92E3A9" stroke="#263238" stroke-miterlimit="10"/>
<path d="M85.7363 245.721L95.4163 236.461" stroke="#263238" stroke-width="0.5" stroke-miterlimit="10"/>
<path d="M75.7969 200.081L82.1569 189.711" stroke="#263238" stroke-width="2" stroke-miterlimit="10"/>
<path d="M80.2173 192.831C79.9589 191.51 79.9849 190.148 80.2935 188.838C80.6021 187.528 81.1864 186.298 82.0073 185.231C83.7073 182.911 93.7773 175.931 95.6473 179.601C97.6873 183.561 88.1273 194.231 80.2173 192.831Z" fill="#92E3A9" stroke="#263238" stroke-miterlimit="10"/>
<path d="M80.2168 192.831L89.8968 183.571" stroke="#263238" stroke-width="0.5" stroke-miterlimit="10"/>
<path d="M73.3672 176.831L79.7272 166.471" stroke="#263238" stroke-width="2" stroke-miterlimit="10"/>
<path d="M77.7863 169.581C77.5262 168.254 77.5532 166.886 77.8654 165.57C78.1775 164.254 78.7677 163.02 79.5963 161.951C81.3063 159.641 91.3763 152.651 93.2463 156.321C95.2563 160.321 85.6963 171.021 77.7863 169.581Z" fill="#92E3A9" stroke="#263238" stroke-miterlimit="10"/>
<path d="M77.7871 169.581L87.4671 160.331" stroke="#263238" stroke-width="0.5" stroke-miterlimit="10"/>
<path d="M69.8164 142.761L76.1664 132.391" stroke="#263238" stroke-width="2" stroke-miterlimit="10"/>
<path d="M74.227 135.501C73.9644 134.176 73.9892 132.81 74.2997 131.496C74.6102 130.181 75.1993 128.948 76.027 127.881C77.727 125.561 87.797 118.581 89.667 122.251C91.697 126.231 82.147 136.941 74.227 135.501Z" fill="#92E3A9" stroke="#263238" stroke-miterlimit="10"/>
<path d="M74.2266 135.501L83.9166 126.251" stroke="#263238" stroke-width="0.5" stroke-miterlimit="10"/>
<path d="M67.097 120.971C66.8341 119.645 66.8579 118.278 67.1666 116.962C67.4753 115.646 68.0619 114.412 68.887 113.341C70.587 111.031 80.657 104.041 82.527 107.721C84.597 111.711 75.007 122.411 67.097 120.971Z" fill="#92E3A9" stroke="#263238" stroke-miterlimit="10"/>
<path d="M67.0977 120.971L76.7777 111.721" stroke="#263238" stroke-width="0.5" stroke-miterlimit="10"/>
<path d="M67.6579 121.371C66.3118 121.493 64.9551 121.326 63.6788 120.881C62.4025 120.436 61.2361 119.724 60.2579 118.791C58.1279 116.851 52.2579 106.101 56.0879 104.631C60.2779 103.021 69.9179 113.651 67.6579 121.371Z" fill="#92E3A9" stroke="#263238" stroke-miterlimit="10"/>
<path d="M67.6568 121.371L59.4668 110.771" stroke="#263238" stroke-width="0.5" stroke-miterlimit="10"/>
<path d="M115.897 146.291L97.5566 323.041" stroke="#263238" stroke-width="2" stroke-miterlimit="10"/>
<path d="M101.606 289.331L95.2461 278.961" stroke="#263238" stroke-width="2" stroke-miterlimit="10"/>
<path d="M97.1873 282.081C97.4501 280.754 97.4254 279.387 97.1149 278.071C96.8044 276.755 96.2153 275.52 95.3873 274.451C93.6873 272.131 83.6073 265.161 81.7473 268.831C79.7073 272.821 89.2773 283.521 97.1873 282.081Z" fill="#92E3A9" stroke="#263238" stroke-miterlimit="10"/>
<path d="M97.1869 282.081L88.0469 273.301" stroke="#263238" stroke-width="0.5" stroke-miterlimit="10"/>
<path d="M106.698 240.281L100.338 229.911" stroke="#263238" stroke-width="2" stroke-miterlimit="10"/>
<path d="M102.277 233.031C102.54 231.704 102.515 230.337 102.205 229.021C101.894 227.704 101.305 226.47 100.477 225.401C98.7772 223.081 88.6972 216.111 86.8372 219.781C84.7972 223.771 94.3672 234.471 102.277 233.031Z" fill="#92E3A9" stroke="#263238" stroke-miterlimit="10"/>
<path d="M102.277 233.031L93.1367 224.251" stroke="#263238" stroke-width="0.5" stroke-miterlimit="10"/>
<path d="M104.616 260.381L98.2461 250.011" stroke="#263238" stroke-width="2" stroke-miterlimit="10"/>
<path d="M100.187 253.131C100.45 251.805 100.426 250.438 100.117 249.122C99.8087 247.806 99.2221 246.572 98.397 245.501C96.687 243.231 86.597 236.231 84.747 239.881C82.717 243.871 92.277 254.571 100.187 253.131Z" fill="#92E3A9" stroke="#263238" stroke-miterlimit="10"/>
<path d="M100.187 253.131L91.0469 244.361" stroke="#263238" stroke-width="0.5" stroke-miterlimit="10"/>
<path d="M110.087 207.621L103.727 197.261" stroke="#263238" stroke-width="2" stroke-miterlimit="10"/>
<path d="M105.667 200.371C105.93 199.046 105.905 197.68 105.595 196.365C105.284 195.051 104.695 193.818 103.867 192.751C102.167 190.431 92.0875 183.451 90.2175 187.131C88.1875 191.121 97.7575 201.821 105.667 200.371Z" fill="#92E3A9" stroke="#263238" stroke-miterlimit="10"/>
<path d="M105.667 200.371L96.5273 191.601" stroke="#263238" stroke-width="0.5" stroke-miterlimit="10"/>
<path d="M113.487 174.831L107.127 164.471" stroke="#263238" stroke-width="2" stroke-miterlimit="10"/>
<path d="M109.067 167.581C109.33 166.255 109.306 164.888 108.997 163.572C108.688 162.256 108.102 161.022 107.277 159.951C105.597 157.631 95.4869 150.661 93.5969 154.331C91.5969 158.321 101.157 169.021 109.067 167.581Z" fill="#92E3A9" stroke="#263238" stroke-miterlimit="10"/>
<path d="M109.068 167.581L99.9277 158.811" stroke="#263238" stroke-width="0.5" stroke-miterlimit="10"/>
<path d="M102.688 277.401L111.037 268.561" stroke="#263238" stroke-width="2" stroke-miterlimit="10"/>
<path d="M108.496 271.231C108.512 269.88 108.817 268.548 109.392 267.325C109.966 266.102 110.796 265.016 111.826 264.141C113.966 262.221 125.266 257.461 126.336 261.441C127.506 265.741 115.946 274.231 108.496 271.231Z" fill="#92E3A9" stroke="#263238" stroke-miterlimit="10"/>
<path d="M108.496 271.211L119.886 264.151" stroke="#263238" stroke-width="0.5" stroke-miterlimit="10"/>
<path d="M108.178 224.501L116.528 215.671" stroke="#263238" stroke-width="2" stroke-miterlimit="10"/>
<path d="M113.986 218.321C114.003 216.968 114.308 215.635 114.883 214.41C115.457 213.186 116.287 212.098 117.316 211.221C119.456 209.301 130.746 204.541 131.826 208.521C132.996 212.851 121.436 221.351 113.986 218.321Z" fill="#92E3A9" stroke="#263238" stroke-miterlimit="10"/>
<path d="M113.986 218.321L125.366 211.251" stroke="#263238" stroke-width="0.5" stroke-miterlimit="10"/>
<path d="M110.588 201.261L118.938 192.421" stroke="#263238" stroke-width="2" stroke-miterlimit="10"/>
<path d="M116.406 195.071C116.419 193.72 116.722 192.388 117.295 191.165C117.868 189.941 118.697 188.856 119.726 187.981C121.866 186.061 133.166 181.301 134.236 185.281C135.406 189.601 123.846 198.111 116.406 195.071Z" fill="#92E3A9" stroke="#263238" stroke-miterlimit="10"/>
<path d="M116.406 195.071L127.786 188.011" stroke="#263238" stroke-width="0.5" stroke-miterlimit="10"/>
<path d="M114.117 167.181L122.477 158.341" stroke="#263238" stroke-width="2" stroke-miterlimit="10"/>
<path d="M119.938 160.991C119.953 159.64 120.259 158.308 120.833 157.085C121.408 155.862 122.238 154.776 123.268 153.901C125.408 151.981 136.697 147.221 137.777 151.201C138.947 155.521 127.387 164.031 119.938 160.991Z" fill="#92E3A9" stroke="#263238" stroke-miterlimit="10"/>
<path d="M119.938 160.991L131.317 153.931" stroke="#263238" stroke-width="0.5" stroke-miterlimit="10"/>
<path d="M115.947 145.301C115.963 143.951 116.267 142.619 116.839 141.396C117.412 140.173 118.24 139.087 119.267 138.211C121.417 136.291 132.707 131.531 133.777 135.511C134.947 139.831 123.397 148.341 115.947 145.301Z" fill="#92E3A9" stroke="#263238" stroke-miterlimit="10"/>
<path d="M115.947 145.301L127.327 138.241" stroke="#263238" stroke-width="0.5" stroke-miterlimit="10"/>
<path d="M116.418 145.811C115.075 145.653 113.782 145.21 112.625 144.512C111.467 143.813 110.473 142.875 109.708 141.761C108.028 139.421 104.478 127.691 108.548 127.041C112.968 126.331 120.218 138.721 116.418 145.811Z" fill="#92E3A9" stroke="#263238" stroke-miterlimit="10"/>
<path d="M116.418 145.811L110.588 133.751" stroke="#263238" stroke-width="0.5" stroke-miterlimit="10"/>
<path d="M94.877 74.3209V297.831" stroke="#263238" stroke-width="2" stroke-miterlimit="10"/>
<path d="M95.0563 264.221L87.6562 254.571" stroke="#263238" stroke-width="2" stroke-miterlimit="10"/>
<path d="M89.9078 257.461C90.0334 256.115 89.869 254.759 89.4256 253.482C88.9823 252.206 88.2703 251.039 87.3378 250.061C85.3978 247.941 74.6578 242.061 73.1778 245.881C71.5978 250.061 82.1878 259.721 89.9078 257.461Z" fill="#92E3A9" stroke="#263238" stroke-miterlimit="10"/>
<path d="M89.9062 257.461L79.9062 249.681" stroke="#263238" stroke-width="0.5" stroke-miterlimit="10"/>
<path d="M95.0563 222.221L87.6562 212.571" stroke="#263238" stroke-width="2" stroke-miterlimit="10"/>
<path d="M89.9078 215.461C90.0334 214.115 89.869 212.759 89.4256 211.482C88.9823 210.206 88.2703 209.039 87.3378 208.061C85.3978 205.931 74.6578 200.061 73.1778 203.881C71.5978 208.061 82.1878 217.711 89.9078 215.461Z" fill="#92E3A9" stroke="#263238" stroke-miterlimit="10"/>
<path d="M89.9062 215.461L79.9062 207.681" stroke="#263238" stroke-width="0.5" stroke-miterlimit="10"/>
<path d="M95.0563 172.901L87.6562 163.251" stroke="#263238" stroke-width="2" stroke-miterlimit="10"/>
<path d="M89.9078 166.151C90.0334 164.805 89.869 163.449 89.4256 162.172C88.9823 160.896 88.2703 159.729 87.3378 158.751C85.3978 156.621 74.6578 150.751 73.1778 154.571C71.5978 158.751 82.1878 168.401 89.9078 166.151Z" fill="#92E3A9" stroke="#263238" stroke-miterlimit="10"/>
<path d="M89.9062 166.151L79.9062 158.371" stroke="#263238" stroke-width="0.5" stroke-miterlimit="10"/>
<path d="M95.0563 140.081L87.6562 130.421" stroke="#263238" stroke-width="2" stroke-miterlimit="10"/>
<path d="M89.9078 133.321C90.0334 131.975 89.869 130.619 89.4256 129.342C88.9823 128.066 88.2703 126.899 87.3378 125.921C85.3978 123.791 74.6578 117.921 73.1778 121.741C71.5978 125.921 82.1878 135.571 89.9078 133.321Z" fill="#92E3A9" stroke="#263238" stroke-miterlimit="10"/>
<path d="M89.9062 133.321L79.9062 125.541" stroke="#263238" stroke-width="0.5" stroke-miterlimit="10"/>
<path d="M95.0563 107.111L87.6562 97.4509" stroke="#263238" stroke-width="2" stroke-miterlimit="10"/>
<path d="M89.9078 100.351C90.0334 99.0054 89.869 97.6486 89.4256 96.3721C88.9823 95.0955 88.2703 93.9289 87.3378 92.9509C85.3978 90.8209 74.6578 84.9509 73.1778 88.7709C71.5978 92.9509 82.1878 102.601 89.9078 100.351Z" fill="#92E3A9" stroke="#263238" stroke-miterlimit="10"/>
<path d="M89.9062 100.351L79.9062 92.5709" stroke="#263238" stroke-width="0.5" stroke-miterlimit="10"/>
<path d="M94.8965 277.051L102.296 267.391" stroke="#263238" stroke-width="2" stroke-miterlimit="10"/>
<path d="M100.037 270.291C99.9146 268.945 100.081 267.588 100.526 266.312C100.971 265.036 101.684 263.869 102.617 262.891C104.547 260.761 115.287 254.891 116.767 258.711C118.377 262.891 107.757 272.541 100.037 270.291Z" fill="#92E3A9" stroke="#263238" stroke-miterlimit="10"/>
<path d="M100.037 270.291L110.627 262.091" stroke="#263238" stroke-width="0.5" stroke-miterlimit="10"/>
<path d="M94.8965 210.241L102.296 200.591" stroke="#263238" stroke-width="2" stroke-miterlimit="10"/>
<path d="M100.037 203.491C99.9146 202.145 100.081 200.788 100.526 199.512C100.971 198.236 101.684 197.069 102.617 196.091C104.547 193.961 115.287 188.091 116.767 191.911C118.377 196.091 107.757 205.741 100.037 203.491Z" fill="#92E3A9" stroke="#263238" stroke-miterlimit="10"/>
<path d="M100.037 203.491L110.627 195.291" stroke="#263238" stroke-width="0.5" stroke-miterlimit="10"/>
<path d="M94.8965 177.271L102.296 167.621" stroke="#263238" stroke-width="2" stroke-miterlimit="10"/>
<path d="M100.037 170.521C99.9146 169.175 100.081 167.818 100.526 166.542C100.971 165.266 101.684 164.099 102.617 163.121C104.547 160.991 115.287 155.121 116.767 158.931C118.377 163.121 107.757 172.771 100.037 170.521Z" fill="#92E3A9" stroke="#263238" stroke-miterlimit="10"/>
<path d="M100.037 170.521L110.627 162.321" stroke="#263238" stroke-width="0.5" stroke-miterlimit="10"/>
<path d="M94.8965 133.691L102.296 124.041" stroke="#263238" stroke-width="2" stroke-miterlimit="10"/>
<path d="M100.037 126.941C99.9146 125.595 100.081 124.238 100.526 122.962C100.971 121.686 101.684 120.519 102.617 119.541C104.547 117.411 115.287 111.541 116.767 115.351C118.377 119.541 107.757 129.231 100.037 126.941Z" fill="#92E3A9" stroke="#263238" stroke-miterlimit="10"/>
<path d="M100.037 126.941L110.627 118.741" stroke="#263238" stroke-width="0.5" stroke-miterlimit="10"/>
<path d="M94.8965 99.4309L102.296 89.7809" stroke="#263238" stroke-width="2" stroke-miterlimit="10"/>
<path d="M100.037 92.6809C99.9143 91.3348 100.081 89.9779 100.526 88.7015C100.971 87.4252 101.684 86.2588 102.617 85.281C104.547 83.151 115.287 77.281 116.767 81.091C118.377 85.281 107.757 94.9309 100.037 92.6809Z" fill="#92E3A9" stroke="#263238" stroke-miterlimit="10"/>
<path d="M100.037 92.681L110.627 84.481" stroke="#263238" stroke-width="0.5" stroke-miterlimit="10"/>
<path d="M94.4471 77.4809C94.3248 76.1348 94.4917 74.7781 94.9367 73.5018C95.3816 72.2255 96.0944 71.0592 97.0271 70.0809C98.9571 67.9509 109.697 62.0809 111.177 65.9009C112.787 70.0809 102.167 79.7309 94.4471 77.4809Z" fill="#92E3A9" stroke="#263238" stroke-miterlimit="10"/>
<path d="M94.4473 77.4809L105.037 69.2809" stroke="#263238" stroke-width="0.5" stroke-miterlimit="10"/>
<path d="M94.9679 77.9409C93.6163 77.9219 92.2844 77.614 91.0616 77.0379C89.8388 76.4619 88.7533 75.6309 87.8779 74.6009C85.9679 72.4509 81.2279 61.1509 85.2079 60.0809C89.5279 58.9209 98.0179 70.4909 94.9679 77.9409Z" fill="#92E3A9" stroke="#263238" stroke-miterlimit="10"/>
<path d="M94.9677 77.941L87.9277 66.541" stroke="#263238" stroke-width="0.5" stroke-miterlimit="10"/>
<path d="M104.077 355.791H80.4073L77.4473 296.021H107.037L104.077 355.791Z" fill="#263238" stroke="#263238" stroke-miterlimit="10"/>
<path d="M147.16 322.668C147.253 320.736 147.769 318.849 148.67 317.138C150.05 314.868 155.08 313.238 157.73 314.368C159.068 314.917 160.37 315.548 161.63 316.258C159.003 317.082 156.502 318.266 154.2 319.778C152.078 321.216 149.681 322.2 147.16 322.668Z" fill="#92E3A9"/>
<path d="M141.87 324.308C143.724 322.415 144.956 320 145.4 317.388C145.9 313.388 141.62 319.068 141.62 319.068C141.62 319.068 139.48 310.968 138.23 315.498C136.98 320.028 141.87 324.308 141.87 324.308Z" fill="#92E3A9"/>
<path d="M136.09 323.048C136.09 323.048 136.84 319.278 135.46 316.638C134.08 313.998 130.46 314.248 126.78 315.378C125.238 315.944 123.633 316.324 122 316.508C124.513 318.193 127.162 319.665 129.92 320.908C131.927 321.757 133.988 322.472 136.09 323.048Z" fill="#92E3A9"/>
<path d="M141.819 336.608C141.906 336.608 141.99 336.573 142.052 336.511C142.114 336.449 142.149 336.365 142.149 336.278V318.248C142.149 318.205 142.14 318.162 142.123 318.123C142.107 318.083 142.082 318.048 142.051 318.018C142.021 317.988 141.984 317.965 141.944 317.949C141.904 317.934 141.862 317.926 141.819 317.928C141.734 317.928 141.652 317.961 141.592 318.021C141.532 318.081 141.499 318.163 141.499 318.248V336.248C141.493 336.293 141.497 336.339 141.51 336.383C141.524 336.426 141.547 336.466 141.577 336.5C141.607 336.534 141.645 336.562 141.686 336.58C141.728 336.599 141.773 336.608 141.819 336.608Z" fill="#263238"/>
<path d="M140.329 336.608H140.379C140.463 336.593 140.538 336.546 140.589 336.477C140.639 336.408 140.661 336.322 140.649 336.238C140.589 335.788 139.069 325.128 133.909 319.238C133.848 319.178 133.765 319.144 133.679 319.144C133.593 319.144 133.511 319.178 133.449 319.238C133.418 319.268 133.394 319.303 133.377 319.343C133.36 319.382 133.352 319.425 133.352 319.468C133.352 319.511 133.36 319.553 133.377 319.593C133.394 319.632 133.418 319.668 133.449 319.698C138.449 325.468 140.019 336.278 140.039 336.388C140.059 336.45 140.098 336.504 140.15 336.543C140.202 336.582 140.264 336.605 140.329 336.608Z" fill="#263238"/>
<path d="M143.35 336.358C143.437 336.355 143.52 336.32 143.581 336.258C143.642 336.197 143.678 336.114 143.68 336.028C143.68 335.918 143.63 325.678 149.68 320.808C149.721 320.783 149.755 320.751 149.782 320.712C149.808 320.673 149.826 320.629 149.834 320.583C149.842 320.537 149.84 320.489 149.829 320.444C149.817 320.398 149.796 320.356 149.766 320.319C149.737 320.282 149.7 320.253 149.658 320.231C149.616 320.21 149.57 320.198 149.523 320.196C149.476 320.194 149.429 320.202 149.386 320.22C149.342 320.237 149.303 320.264 149.27 320.298C142.93 325.378 142.98 335.598 142.98 336.038C142.983 336.083 142.995 336.128 143.015 336.169C143.035 336.21 143.063 336.246 143.097 336.276C143.132 336.306 143.172 336.329 143.216 336.343C143.259 336.357 143.305 336.362 143.35 336.358Z" fill="#263238"/>
<path d="M138.319 336.248H138.399C138.441 336.237 138.481 336.219 138.515 336.193C138.549 336.167 138.578 336.134 138.6 336.097C138.621 336.059 138.635 336.018 138.64 335.975C138.645 335.933 138.641 335.889 138.629 335.848C137.992 333.654 136.999 331.58 135.689 329.708C135.664 329.672 135.633 329.642 135.596 329.619C135.56 329.596 135.519 329.58 135.476 329.573C135.433 329.565 135.39 329.566 135.347 329.576C135.305 329.585 135.265 329.603 135.229 329.628C135.161 329.681 135.116 329.759 135.103 329.844C135.09 329.929 135.11 330.017 135.159 330.088C136.423 331.897 137.382 333.9 137.999 336.018C138.019 336.086 138.062 336.146 138.12 336.188C138.178 336.23 138.248 336.251 138.319 336.248Z" fill="#263238"/>
<path d="M136.339 331.248C136.339 331.248 136.459 327.728 134.949 327.248C133.439 326.768 132.059 328.008 130.949 328.758C129.839 329.508 128.559 330.268 128.559 332.538C128.688 334.694 128.982 336.837 129.439 338.948C129.439 338.948 130.699 335.048 132.839 333.288C133.831 332.345 135.029 331.646 136.339 331.248Z" fill="#92E3A9"/>
<path d="M145.62 336.358C145.689 336.355 145.756 336.332 145.811 336.291C145.866 336.25 145.908 336.193 145.93 336.128C146.579 334.246 147.71 332.567 149.21 331.258C149.25 331.234 149.284 331.202 149.31 331.163C149.337 331.125 149.355 331.082 149.363 331.036C149.372 330.991 149.371 330.944 149.36 330.899C149.349 330.854 149.329 330.811 149.3 330.775C149.272 330.738 149.236 330.707 149.196 330.685C149.155 330.663 149.11 330.65 149.064 330.647C149.017 330.643 148.971 330.65 148.927 330.665C148.884 330.681 148.844 330.706 148.81 330.738C147.205 332.128 145.997 333.919 145.31 335.928C145.296 335.969 145.291 336.012 145.294 336.054C145.297 336.097 145.309 336.139 145.328 336.177C145.348 336.216 145.375 336.25 145.408 336.277C145.441 336.305 145.479 336.325 145.52 336.338L145.62 336.358Z" fill="#263238"/>
<path d="M147.16 332.358C146.884 331.01 147.154 329.607 147.91 328.458C149.17 326.828 152.19 327.198 153.7 328.958C155.21 330.718 157.35 336.008 157.35 336.008C155.454 334.582 153.179 333.751 150.81 333.618C147.28 333.618 147.16 332.358 147.16 332.358Z" fill="#92E3A9"/>
<path d="M137.129 355.638H147.169L152.189 339.038H132.109L137.129 355.638Z" fill="#263238" stroke="#263238" stroke-linecap="round" stroke-linejoin="round"/>
<path d="M132.06 339.038H152.25V336.288H132.06V339.038Z" fill="#263238" stroke="#263238" stroke-linecap="round" stroke-linejoin="round"/>
</g>
</g>
<defs>
<clipPath id="clip0_1_3">
<rect width="476" height="359" fill="white"/>
</clipPath>
</defs>
</svg>
