<svg width="476" height="359" viewBox="0 0 476 359" fill="none" xmlns="http://www.w3.org/2000/svg">
<g clip-path="url(#clip0_164_2648)">
<path d="M247.905 62.7774H130.916C126.427 62.7774 122.775 59.1251 122.775 54.6364V8.14035C122.775 3.65165 126.427 0 130.916 0H247.905C252.394 0 256.046 3.65165 256.046 8.14035V54.6364C256.046 59.1251 252.394 62.7774 247.905 62.7774Z" fill="#757575"/>
<path d="M247.905 205.166H130.916C126.427 205.166 122.775 201.514 122.775 197.025V150.529C122.775 146.041 126.427 142.389 130.916 142.389H247.905C252.394 142.389 256.046 146.041 256.046 150.529V197.025C256.046 201.514 252.394 205.166 247.905 205.166Z" fill="#D8D8D8"/>
<path d="M247.211 133.142H201.218C196.494 133.142 192.65 129.298 192.65 124.574V79.9842C192.65 75.2599 196.494 71.4164 201.218 71.4164H247.211C251.935 71.4164 255.779 75.2599 255.779 79.9842V124.574C255.779 129.298 251.935 133.142 247.211 133.142Z" fill="#D8D8D8"/>
<path d="M177.068 133.142H131.076C126.351 133.142 122.508 129.298 122.508 124.574V79.9842C122.508 75.2599 126.351 71.4164 131.076 71.4164H177.068C181.792 71.4164 185.636 75.2599 185.636 79.9842V124.574C185.636 129.298 181.792 133.142 177.068 133.142Z" fill="#D8D8D8"/>
<path d="M476 357.247C476 357.829 475.53 358.299 474.948 358.299H1.05214C0.469954 358.299 0 357.829 0 357.247C0 356.664 0.469954 356.194 1.05214 356.194H474.948C475.53 356.194 476 356.664 476 357.247Z" fill="#2F2E43"/>
<path d="M365.919 318.572L356.227 328.748L345.898 319.2L355.59 309.024L365.919 318.572Z" fill="white"/>
<path d="M373.66 328.995L353.059 350.626C351.298 352.475 349.099 353.936 346.699 354.85L340.956 357.039C339.768 357.492 338.401 357.23 337.472 356.372C336.383 355.365 336.108 353.752 336.802 352.45L342.327 342.086L348.222 321.071L348.286 321.11C349.89 322.098 352.322 323.579 352.496 323.642C355.548 323.75 357.734 322.983 358.992 321.361C361.186 318.532 359.794 314.016 359.78 313.971L359.769 313.936L359.797 313.912C360.436 313.366 361.11 313.147 361.799 313.263C363.262 313.507 364.309 315.15 364.462 315.403C365.835 315.345 370.05 318.647 370.389 318.914C372.459 318.909 373.976 319.399 374.898 320.373C375.705 321.224 376.056 322.432 375.942 323.964C375.805 325.807 374.995 327.593 373.66 328.995Z" fill="#090814"/>
<path d="M354.73 330.288H340.566V344.243H354.73V330.288Z" fill="white"/>
<path d="M352.312 356.937H322.205C319.632 356.937 317.046 356.356 314.727 355.258L309.176 352.629C308.029 352.085 307.287 350.924 307.287 349.669C307.287 348.198 308.292 346.896 309.731 346.504L321.182 343.382L340.771 333.238L340.786 333.311C341.152 335.139 341.72 337.9 341.792 338.068C343.801 340.335 345.865 341.38 347.926 341.174C351.521 340.815 353.911 336.725 353.935 336.684L353.953 336.652L353.99 336.656C354.831 336.742 355.454 337.076 355.841 337.65C356.661 338.868 356.16 340.745 356.078 341.028C357.06 341.975 357.501 347.262 357.535 347.689C358.955 349.172 359.63 350.598 359.541 351.927C359.463 353.089 358.809 354.167 357.597 355.134C356.14 356.296 354.263 356.937 352.312 356.937Z" fill="#090814"/>
<path d="M356.412 154.54L306.224 154.564L289.494 258.93L339.683 318.581L356.412 303.669L316.749 258.93L356.412 154.54Z" fill="#090814"/>
<path d="M326.748 169.925L356.413 154.54V333.494L339.683 333.954L326.748 169.925Z" fill="#090814"/>
<path d="M296.533 196.381L296.528 196.592L296.677 196.743C298.277 198.362 299.291 200.837 299.231 203.614C299.125 208.508 295.775 212.237 291.933 212.154C288.091 212.071 284.906 208.2 285.012 203.305C285.073 200.528 286.194 198.1 287.862 196.552L288.017 196.408L288.021 196.196L288.364 180.405L296.876 180.59L296.533 196.381Z" fill="white" stroke="black"/>
<path d="M342.137 37.2961C342.137 37.2961 355.79 37.2666 350.689 24.1108C345.589 10.9551 336.092 16.8456 336.092 16.8456C336.092 16.8456 332.09 18.9595 332.915 23.6757" fill="#090814"/>
<path d="M320.263 60.9603L320.216 60.6515L319.918 60.558C312.707 58.2964 307.477 51.562 307.477 43.6065C307.477 33.796 315.43 25.8431 325.24 25.8431C335.05 25.8431 343.003 33.796 343.003 43.6065C343.003 49.79 339.843 55.2336 335.048 58.4157L334.717 58.6353L334.856 59.0073C335.915 61.8448 337.429 64.5119 338.671 66.4636C339.293 67.441 339.85 68.2426 340.252 68.8005C340.391 68.9943 340.512 69.1588 340.611 69.2911L323.661 83.4162L320.263 60.9603Z" fill="white" stroke="black"/>
<path d="M334.014 59.0346C334.014 59.0346 336.44 49.7361 332.474 45.4606C328.517 41.1948 328.006 47.8322 328.006 47.8322L325.151 47.2115C325.151 47.2115 325.648 40.7568 320.062 39.6396L323.662 31.9435C323.662 31.9435 309.88 34.6195 309.5 33.2846C306.511 22.7817 335.025 13.8098 342.902 29.8333C355.153 54.7552 334.014 59.0346 334.014 59.0346Z" fill="#090814"/>
<path d="M317.883 75.305C304.623 77.8959 294.671 88.9358 293.464 102.392L285.211 194.415H299.694L317.883 75.305Z" fill="#757575"/>
<path d="M304.189 148.623L301.934 174.606L363.161 156.598L355.7 137.818L369.592 105.919L341.234 65.272L318.596 66.8155L309.849 78.1348" fill="#757575"/>
<path d="M353.693 173.037L353.582 173.217L353.634 173.422C354.196 175.628 353.821 178.276 352.365 180.641C349.799 184.811 345.024 186.335 341.751 184.321C338.478 182.307 337.687 177.357 340.252 173.188C341.708 170.822 343.903 169.294 346.125 168.801L346.331 168.755L346.442 168.575L354.72 155.123L361.971 159.585L353.693 173.037Z" fill="white" stroke="black"/>
<path d="M336.604 65.7865L341.54 65.5817L349.981 71.9607C359.982 73.6663 362.883 74.1444 365.947 80.751C367.235 83.527 368.089 86.4844 368.566 89.5072L375.707 134.731L357.758 177.95L345.865 164.573L358.579 130.783L356.467 122.701" fill="#757575"/>
<path d="M20.2461 121.951L38.6961 298.691" stroke="#263238" stroke-width="2" stroke-miterlimit="10"/>
<path d="M35.7174 264.861L27.3574 256.031" stroke="#263238" stroke-width="2" stroke-miterlimit="10"/>
<path d="M29.8964 258.681C29.8842 257.332 29.5834 256.001 29.0142 254.779C28.445 253.556 27.6206 252.469 26.5964 251.591C24.4564 249.671 13.1564 244.921 12.0864 248.901C10.8864 253.231 22.4564 261.721 29.8964 258.681Z" fill="#92E3A9" stroke="#263238" stroke-miterlimit="10"/>
<path d="M29.8965 258.681L19.1465 251.981" stroke="#263238" stroke-width="0.5" stroke-miterlimit="10"/>
<path d="M37.817 284.961L29.457 276.131" stroke="#263238" stroke-width="2" stroke-miterlimit="10"/>
<path d="M31.9963 278.781C31.9804 277.43 31.6749 276.098 31.1005 274.875C30.526 273.652 29.6959 272.566 28.6663 271.691C26.5263 269.771 15.2263 265.021 14.1563 269.001C12.9863 273.321 24.5963 281.821 31.9963 278.781Z" fill="#92E3A9" stroke="#263238" stroke-miterlimit="10"/>
<path d="M31.9961 278.781L21.2461 272.081" stroke="#263238" stroke-width="0.5" stroke-miterlimit="10"/>
<path d="M30.5963 215.821L22.2363 206.991" stroke="#263238" stroke-width="2" stroke-miterlimit="10"/>
<path d="M24.7765 209.631C24.7605 208.281 24.456 206.95 23.8834 205.727C23.3108 204.504 22.4833 203.418 21.4565 202.541C19.3065 200.621 8.00648 195.871 6.93648 199.851C5.77648 204.231 17.3365 212.671 24.7765 209.631Z" fill="#92E3A9" stroke="#263238" stroke-miterlimit="10"/>
<path d="M24.7773 209.631L14.0273 202.931" stroke="#263238" stroke-width="0.5" stroke-miterlimit="10"/>
<path d="M32.6979 235.921L24.3379 227.091" stroke="#263238" stroke-width="2" stroke-miterlimit="10"/>
<path d="M26.8773 229.731C26.867 228.384 26.569 227.054 26.0033 225.832C25.4377 224.609 24.6174 223.521 23.5973 222.641C21.4573 220.721 10.1573 215.971 9.08732 219.951C7.86732 224.281 19.4273 232.771 26.8773 229.731Z" fill="#92E3A9" stroke="#263238" stroke-miterlimit="10"/>
<path d="M26.877 229.731L16.127 223.031" stroke="#263238" stroke-width="0.5" stroke-miterlimit="10"/>
<path d="M27.1979 183.171L18.8379 174.341" stroke="#263238" stroke-width="2" stroke-miterlimit="10"/>
<path d="M21.3763 176.981C21.3572 175.63 21.0503 174.299 20.4761 173.077C19.9018 171.854 19.0735 170.768 18.0463 169.891C15.8963 167.971 4.59632 163.231 3.52632 167.231C2.36632 171.531 13.9263 180.021 21.3763 176.981Z" fill="#92E3A9" stroke="#263238" stroke-miterlimit="10"/>
<path d="M21.3772 176.981L10.6172 170.281" stroke="#263238" stroke-width="0.5" stroke-miterlimit="10"/>
<path d="M23.7662 150.371L15.4062 141.541" stroke="#263238" stroke-width="2" stroke-miterlimit="10"/>
<path d="M17.947 144.231C17.9337 142.872 17.6276 141.531 17.0495 140.301C16.4714 139.07 15.6349 137.979 14.597 137.101C12.447 135.181 1.14702 130.431 0.0770203 134.411C-1.05298 138.731 10.507 147.231 17.947 144.231Z" fill="#92E3A9" stroke="#263238" stroke-miterlimit="10"/>
<path d="M17.9473 144.191L7.19727 137.491" stroke="#263238" stroke-width="0.5" stroke-miterlimit="10"/>
<path d="M34.3164 252.971L40.6764 242.601" stroke="#263238" stroke-width="2" stroke-miterlimit="10"/>
<path d="M38.7376 245.721C38.4748 244.395 38.4985 243.028 38.8072 241.712C39.1159 240.396 39.7025 239.162 40.5276 238.091C42.2276 235.771 52.2976 228.791 54.1676 232.461C56.2076 236.451 46.6476 247.161 38.7376 245.721Z" fill="#92E3A9" stroke="#263238" stroke-miterlimit="10"/>
<path d="M38.7363 245.721L48.4163 236.461" stroke="#263238" stroke-width="0.5" stroke-miterlimit="10"/>
<path d="M28.7969 200.081L35.1569 189.711" stroke="#263238" stroke-width="2" stroke-miterlimit="10"/>
<path d="M33.2173 192.831C32.9589 191.51 32.9849 190.148 33.2935 188.838C33.6021 187.528 34.1864 186.298 35.0073 185.231C36.7073 182.911 46.7773 175.931 48.6473 179.601C50.6873 183.561 41.1273 194.231 33.2173 192.831Z" fill="#92E3A9" stroke="#263238" stroke-miterlimit="10"/>
<path d="M33.2168 192.831L42.8968 183.571" stroke="#263238" stroke-width="0.5" stroke-miterlimit="10"/>
<path d="M26.3672 176.831L32.7272 166.471" stroke="#263238" stroke-width="2" stroke-miterlimit="10"/>
<path d="M30.7863 169.581C30.5262 168.254 30.5532 166.886 30.8654 165.57C31.1775 164.254 31.7677 163.02 32.5963 161.951C34.3063 159.641 44.3763 152.651 46.2463 156.321C48.2563 160.321 38.6963 171.021 30.7863 169.581Z" fill="#92E3A9" stroke="#263238" stroke-miterlimit="10"/>
<path d="M30.7871 169.581L40.4671 160.331" stroke="#263238" stroke-width="0.5" stroke-miterlimit="10"/>
<path d="M22.8164 142.761L29.1664 132.391" stroke="#263238" stroke-width="2" stroke-miterlimit="10"/>
<path d="M27.227 135.501C26.9644 134.176 26.9892 132.81 27.2997 131.496C27.6102 130.181 28.1993 128.948 29.027 127.881C30.727 125.561 40.797 118.581 42.667 122.251C44.697 126.231 35.147 136.941 27.227 135.501Z" fill="#92E3A9" stroke="#263238" stroke-miterlimit="10"/>
<path d="M27.2266 135.501L36.9166 126.251" stroke="#263238" stroke-width="0.5" stroke-miterlimit="10"/>
<path d="M20.097 120.971C19.8341 119.645 19.8579 118.278 20.1666 116.962C20.4753 115.646 21.0619 114.412 21.887 113.341C23.587 111.031 33.657 104.041 35.527 107.721C37.597 111.711 28.007 122.411 20.097 120.971Z" fill="#92E3A9" stroke="#263238" stroke-miterlimit="10"/>
<path d="M20.0977 120.971L29.7777 111.721" stroke="#263238" stroke-width="0.5" stroke-miterlimit="10"/>
<path d="M20.6579 121.371C19.3118 121.493 17.9551 121.326 16.6788 120.881C15.4025 120.436 14.2361 119.724 13.2579 118.791C11.1279 116.851 5.25786 106.101 9.08786 104.631C13.2779 103.021 22.9179 113.651 20.6579 121.371Z" fill="#92E3A9" stroke="#263238" stroke-miterlimit="10"/>
<path d="M20.6568 121.371L12.4668 110.771" stroke="#263238" stroke-width="0.5" stroke-miterlimit="10"/>
<path d="M68.8966 146.291L50.5566 323.041" stroke="#263238" stroke-width="2" stroke-miterlimit="10"/>
<path d="M54.6061 289.331L48.2461 278.961" stroke="#263238" stroke-width="2" stroke-miterlimit="10"/>
<path d="M50.1873 282.081C50.4501 280.754 50.4254 279.387 50.1149 278.071C49.8044 276.755 49.2153 275.52 48.3873 274.451C46.6873 272.131 36.6073 265.161 34.7473 268.831C32.7073 272.821 42.2773 283.521 50.1873 282.081Z" fill="#92E3A9" stroke="#263238" stroke-miterlimit="10"/>
<path d="M50.1869 282.081L41.0469 273.301" stroke="#263238" stroke-width="0.5" stroke-miterlimit="10"/>
<path d="M59.6979 240.281L53.3379 229.911" stroke="#263238" stroke-width="2" stroke-miterlimit="10"/>
<path d="M55.2772 233.031C55.54 231.704 55.5153 230.337 55.2047 229.021C54.8942 227.704 54.3051 226.47 53.4772 225.401C51.7772 223.081 41.6972 216.111 39.8372 219.781C37.7972 223.771 47.3672 234.471 55.2772 233.031Z" fill="#92E3A9" stroke="#263238" stroke-miterlimit="10"/>
<path d="M55.2767 233.031L46.1367 224.251" stroke="#263238" stroke-width="0.5" stroke-miterlimit="10"/>
<path d="M57.6161 260.381L51.2461 250.011" stroke="#263238" stroke-width="2" stroke-miterlimit="10"/>
<path d="M53.187 253.131C53.4498 251.805 53.4261 250.438 53.1174 249.122C52.8087 247.806 52.2221 246.572 51.397 245.501C49.687 243.231 39.597 236.231 37.747 239.881C35.717 243.871 45.277 254.571 53.187 253.131Z" fill="#92E3A9" stroke="#263238" stroke-miterlimit="10"/>
<path d="M53.1869 253.131L44.0469 244.361" stroke="#263238" stroke-width="0.5" stroke-miterlimit="10"/>
<path d="M63.0866 207.621L56.7266 197.261" stroke="#263238" stroke-width="2" stroke-miterlimit="10"/>
<path d="M58.6675 200.371C58.9301 199.046 58.9053 197.68 58.5947 196.365C58.2842 195.051 57.6952 193.818 56.8675 192.751C55.1675 190.431 45.0875 183.451 43.2175 187.131C41.1875 191.121 50.7575 201.821 58.6675 200.371Z" fill="#92E3A9" stroke="#263238" stroke-miterlimit="10"/>
<path d="M58.6673 200.371L49.5273 191.601" stroke="#263238" stroke-width="0.5" stroke-miterlimit="10"/>
<path d="M66.487 174.831L60.127 164.471" stroke="#263238" stroke-width="2" stroke-miterlimit="10"/>
<path d="M62.0669 167.581C62.3297 166.255 62.306 164.888 61.9973 163.572C61.6885 162.256 61.102 161.022 60.2769 159.951C58.5969 157.631 48.4869 150.661 46.5969 154.331C44.5969 158.321 54.1569 169.021 62.0669 167.581Z" fill="#92E3A9" stroke="#263238" stroke-miterlimit="10"/>
<path d="M62.0677 167.581L52.9277 158.811" stroke="#263238" stroke-width="0.5" stroke-miterlimit="10"/>
<path d="M55.6875 277.401L64.0375 268.561" stroke="#263238" stroke-width="2" stroke-miterlimit="10"/>
<path d="M61.4961 271.231C61.512 269.88 61.8175 268.548 62.3919 267.325C62.9663 266.102 63.7964 265.016 64.8261 264.141C66.9661 262.221 78.2661 257.461 79.3361 261.441C80.5061 265.741 68.9461 274.231 61.4961 271.231Z" fill="#92E3A9" stroke="#263238" stroke-miterlimit="10"/>
<path d="M61.4961 271.211L72.8861 264.151" stroke="#263238" stroke-width="0.5" stroke-miterlimit="10"/>
<path d="M61.1777 224.501L69.5277 215.671" stroke="#263238" stroke-width="2" stroke-miterlimit="10"/>
<path d="M66.9863 218.321C67.0027 216.968 67.3084 215.635 67.8828 214.41C68.4571 213.186 69.2869 212.098 70.3163 211.221C72.4563 209.301 83.7463 204.541 84.8263 208.521C85.9963 212.851 74.4363 221.351 66.9863 218.321Z" fill="#92E3A9" stroke="#263238" stroke-miterlimit="10"/>
<path d="M66.9863 218.321L78.3663 211.251" stroke="#263238" stroke-width="0.5" stroke-miterlimit="10"/>
<path d="M63.5879 201.261L71.9379 192.421" stroke="#263238" stroke-width="2" stroke-miterlimit="10"/>
<path d="M69.4062 195.071C69.4189 193.72 69.722 192.388 70.2948 191.165C70.8677 189.941 71.6969 188.856 72.7262 187.981C74.8663 186.061 86.1663 181.301 87.2363 185.281C88.4063 189.601 76.8463 198.111 69.4062 195.071Z" fill="#92E3A9" stroke="#263238" stroke-miterlimit="10"/>
<path d="M69.4062 195.071L80.7863 188.011" stroke="#263238" stroke-width="0.5" stroke-miterlimit="10"/>
<path d="M67.1172 167.181L75.4772 158.341" stroke="#263238" stroke-width="2" stroke-miterlimit="10"/>
<path d="M72.9375 160.991C72.9534 159.64 73.2589 158.308 73.8333 157.085C74.4078 155.862 75.2378 154.776 76.2675 153.901C78.4075 151.981 89.6975 147.221 90.7775 151.201C91.9475 155.521 80.3875 164.031 72.9375 160.991Z" fill="#92E3A9" stroke="#263238" stroke-miterlimit="10"/>
<path d="M72.9375 160.991L84.3175 153.931" stroke="#263238" stroke-width="0.5" stroke-miterlimit="10"/>
<path d="M68.9473 145.301C68.9626 143.951 69.2668 142.619 69.8394 141.396C70.4121 140.173 71.2399 139.087 72.2673 138.211C74.4173 136.291 85.7073 131.531 86.7773 135.511C87.9473 139.831 76.3973 148.341 68.9473 145.301Z" fill="#92E3A9" stroke="#263238" stroke-miterlimit="10"/>
<path d="M68.9473 145.301L80.3273 138.241" stroke="#263238" stroke-width="0.5" stroke-miterlimit="10"/>
<path d="M69.4178 145.811C68.0753 145.653 66.782 145.21 65.6247 144.512C64.4674 143.813 63.4729 142.875 62.7078 141.761C61.0278 139.421 57.4778 127.691 61.5478 127.041C65.9678 126.331 73.2178 138.721 69.4178 145.811Z" fill="#92E3A9" stroke="#263238" stroke-miterlimit="10"/>
<path d="M69.4179 145.811L63.5879 133.751" stroke="#263238" stroke-width="0.5" stroke-miterlimit="10"/>
<path d="M47.877 74.3209V297.831" stroke="#263238" stroke-width="2" stroke-miterlimit="10"/>
<path d="M48.0563 264.221L40.6562 254.571" stroke="#263238" stroke-width="2" stroke-miterlimit="10"/>
<path d="M42.9078 257.461C43.0334 256.115 42.869 254.759 42.4256 253.482C41.9823 252.206 41.2703 251.039 40.3378 250.061C38.3978 247.941 27.6578 242.061 26.1778 245.881C24.5978 250.061 35.1878 259.721 42.9078 257.461Z" fill="#92E3A9" stroke="#263238" stroke-miterlimit="10"/>
<path d="M42.9062 257.461L32.9062 249.681" stroke="#263238" stroke-width="0.5" stroke-miterlimit="10"/>
<path d="M48.0563 222.221L40.6562 212.571" stroke="#263238" stroke-width="2" stroke-miterlimit="10"/>
<path d="M42.9078 215.461C43.0334 214.115 42.869 212.759 42.4256 211.482C41.9823 210.206 41.2703 209.039 40.3378 208.061C38.3978 205.931 27.6578 200.061 26.1778 203.881C24.5978 208.061 35.1878 217.711 42.9078 215.461Z" fill="#92E3A9" stroke="#263238" stroke-miterlimit="10"/>
<path d="M42.9062 215.461L32.9062 207.681" stroke="#263238" stroke-width="0.5" stroke-miterlimit="10"/>
<path d="M48.0563 172.901L40.6562 163.251" stroke="#263238" stroke-width="2" stroke-miterlimit="10"/>
<path d="M42.9078 166.151C43.0334 164.805 42.869 163.449 42.4256 162.172C41.9823 160.896 41.2703 159.729 40.3378 158.751C38.3978 156.621 27.6578 150.751 26.1778 154.571C24.5978 158.751 35.1878 168.401 42.9078 166.151Z" fill="#92E3A9" stroke="#263238" stroke-miterlimit="10"/>
<path d="M42.9062 166.151L32.9062 158.371" stroke="#263238" stroke-width="0.5" stroke-miterlimit="10"/>
<path d="M48.0563 140.081L40.6562 130.421" stroke="#263238" stroke-width="2" stroke-miterlimit="10"/>
<path d="M42.9078 133.321C43.0334 131.975 42.869 130.619 42.4256 129.342C41.9823 128.066 41.2703 126.899 40.3378 125.921C38.3978 123.791 27.6578 117.921 26.1778 121.741C24.5978 125.921 35.1878 135.571 42.9078 133.321Z" fill="#92E3A9" stroke="#263238" stroke-miterlimit="10"/>
<path d="M42.9062 133.321L32.9062 125.541" stroke="#263238" stroke-width="0.5" stroke-miterlimit="10"/>
<path d="M48.0563 107.111L40.6562 97.4509" stroke="#263238" stroke-width="2" stroke-miterlimit="10"/>
<path d="M42.9078 100.351C43.0334 99.0054 42.869 97.6486 42.4256 96.3721C41.9823 95.0955 41.2703 93.9289 40.3378 92.9509C38.3978 90.8209 27.6578 84.9509 26.1778 88.7709C24.5978 92.9509 35.1878 102.601 42.9078 100.351Z" fill="#92E3A9" stroke="#263238" stroke-miterlimit="10"/>
<path d="M42.9062 100.351L32.9062 92.5709" stroke="#263238" stroke-width="0.5" stroke-miterlimit="10"/>
<path d="M47.8965 277.051L55.2965 267.391" stroke="#263238" stroke-width="2" stroke-miterlimit="10"/>
<path d="M53.037 270.291C52.9146 268.945 53.0815 267.588 53.5265 266.312C53.9715 265.036 54.6842 263.869 55.617 262.891C57.547 260.761 68.287 254.891 69.767 258.711C71.377 262.891 60.757 272.541 53.037 270.291Z" fill="#92E3A9" stroke="#263238" stroke-miterlimit="10"/>
<path d="M53.0371 270.291L63.6271 262.091" stroke="#263238" stroke-width="0.5" stroke-miterlimit="10"/>
<path d="M47.8965 210.241L55.2965 200.591" stroke="#263238" stroke-width="2" stroke-miterlimit="10"/>
<path d="M53.037 203.491C52.9146 202.145 53.0815 200.788 53.5265 199.512C53.9715 198.236 54.6842 197.069 55.617 196.091C57.547 193.961 68.287 188.091 69.767 191.911C71.377 196.091 60.757 205.741 53.037 203.491Z" fill="#92E3A9" stroke="#263238" stroke-miterlimit="10"/>
<path d="M53.0371 203.491L63.6271 195.291" stroke="#263238" stroke-width="0.5" stroke-miterlimit="10"/>
<path d="M47.8965 177.271L55.2965 167.621" stroke="#263238" stroke-width="2" stroke-miterlimit="10"/>
<path d="M53.037 170.521C52.9146 169.175 53.0815 167.818 53.5265 166.542C53.9715 165.266 54.6842 164.099 55.617 163.121C57.547 160.991 68.287 155.121 69.767 158.931C71.377 163.121 60.757 172.771 53.037 170.521Z" fill="#92E3A9" stroke="#263238" stroke-miterlimit="10"/>
<path d="M53.0371 170.521L63.6271 162.321" stroke="#263238" stroke-width="0.5" stroke-miterlimit="10"/>
<path d="M47.8965 133.691L55.2965 124.041" stroke="#263238" stroke-width="2" stroke-miterlimit="10"/>
<path d="M53.037 126.941C52.9146 125.595 53.0815 124.238 53.5265 122.962C53.9715 121.686 54.6842 120.519 55.617 119.541C57.547 117.411 68.287 111.541 69.767 115.351C71.377 119.541 60.757 129.231 53.037 126.941Z" fill="#92E3A9" stroke="#263238" stroke-miterlimit="10"/>
<path d="M53.0371 126.941L63.6271 118.741" stroke="#263238" stroke-width="0.5" stroke-miterlimit="10"/>
<path d="M47.8965 99.4309L55.2965 89.7809" stroke="#263238" stroke-width="2" stroke-miterlimit="10"/>
<path d="M53.0373 92.6809C52.9143 91.3348 53.0809 89.9779 53.5259 88.7015C53.971 87.4252 54.6841 86.2588 55.6173 85.281C57.5473 83.151 68.2873 77.281 69.7673 81.091C71.3773 85.281 60.7573 94.9309 53.0373 92.6809Z" fill="#92E3A9" stroke="#263238" stroke-miterlimit="10"/>
<path d="M53.0371 92.681L63.6271 84.481" stroke="#263238" stroke-width="0.5" stroke-miterlimit="10"/>
<path d="M47.4471 77.4809C47.3248 76.1348 47.4917 74.7781 47.9367 73.5018C48.3816 72.2255 49.0944 71.0592 50.0271 70.0809C51.9571 67.9509 62.6971 62.0809 64.1771 65.9009C65.7871 70.0809 55.1671 79.7309 47.4471 77.4809Z" fill="#92E3A9" stroke="#263238" stroke-miterlimit="10"/>
<path d="M47.4473 77.4809L58.0373 69.2809" stroke="#263238" stroke-width="0.5" stroke-miterlimit="10"/>
<path d="M47.9679 77.9409C46.6163 77.9219 45.2844 77.614 44.0616 77.0379C42.8388 76.4619 41.7533 75.6309 40.8779 74.6009C38.9679 72.4509 34.2279 61.1509 38.2079 60.0809C42.5279 58.9209 51.0179 70.4909 47.9679 77.9409Z" fill="#92E3A9" stroke="#263238" stroke-miterlimit="10"/>
<path d="M47.9677 77.941L40.9277 66.541" stroke="#263238" stroke-width="0.5" stroke-miterlimit="10"/>
<path d="M57.0773 355.791H33.4073L30.4473 296.021H60.0373L57.0773 355.791Z" fill="#263238" stroke="#263238" stroke-miterlimit="10"/>
<path d="M100.16 322.668C100.253 320.736 100.769 318.849 101.67 317.138C103.05 314.868 108.08 313.238 110.73 314.368C112.068 314.917 113.37 315.548 114.63 316.258C112.003 317.082 109.502 318.266 107.2 319.778C105.078 321.216 102.681 322.2 100.16 322.668Z" fill="#92E3A9"/>
<path d="M94.8698 324.308C96.7243 322.415 97.956 320 98.3998 317.388C98.8998 313.388 94.6198 319.068 94.6198 319.068C94.6198 319.068 92.4799 310.968 91.2299 315.498C89.9799 320.028 94.8698 324.308 94.8698 324.308Z" fill="#92E3A9"/>
<path d="M89.09 323.048C89.09 323.048 89.84 319.278 88.46 316.638C87.08 313.998 83.46 314.248 79.78 315.378C78.2376 315.944 76.6328 316.324 75 316.508C77.5125 318.193 80.1618 319.665 82.92 320.908C84.9269 321.757 86.9881 322.472 89.09 323.048Z" fill="#92E3A9"/>
<path d="M94.8186 336.608C94.9061 336.608 94.9901 336.573 95.0519 336.511C95.1138 336.449 95.1486 336.365 95.1486 336.278V318.248C95.1486 318.205 95.14 318.162 95.1233 318.123C95.1066 318.083 95.0822 318.048 95.0514 318.018C95.0206 317.988 94.9841 317.965 94.9441 317.949C94.9041 317.934 94.8615 317.926 94.8186 317.928C94.7337 317.928 94.6523 317.961 94.5923 318.021C94.5323 318.081 94.4986 318.163 94.4986 318.248V336.248C94.4929 336.293 94.4969 336.339 94.5104 336.383C94.524 336.426 94.5466 336.466 94.5769 336.5C94.6072 336.534 94.6445 336.562 94.6862 336.58C94.7278 336.599 94.773 336.608 94.8186 336.608Z" fill="#263238"/>
<path d="M93.3291 336.608H93.3791C93.4632 336.593 93.5384 336.546 93.5887 336.477C93.6391 336.408 93.6607 336.322 93.6491 336.238C93.5891 335.788 92.0691 325.128 86.9091 319.238C86.8475 319.178 86.765 319.144 86.6791 319.144C86.5932 319.144 86.5107 319.178 86.4491 319.238C86.4182 319.268 86.3937 319.303 86.377 319.343C86.3602 319.382 86.3516 319.425 86.3516 319.468C86.3516 319.511 86.3602 319.553 86.377 319.593C86.3937 319.632 86.4182 319.668 86.4491 319.698C91.4491 325.468 93.0191 336.278 93.0391 336.388C93.0594 336.45 93.0979 336.504 93.1497 336.543C93.2016 336.582 93.2641 336.605 93.3291 336.608Z" fill="#263238"/>
<path d="M96.3505 336.358C96.4372 336.355 96.5197 336.32 96.581 336.258C96.6424 336.197 96.6779 336.114 96.6805 336.028C96.6805 335.918 96.6305 325.678 102.68 320.808C102.721 320.783 102.755 320.751 102.782 320.712C102.808 320.673 102.826 320.629 102.834 320.583C102.842 320.537 102.84 320.489 102.829 320.444C102.817 320.398 102.796 320.356 102.766 320.319C102.737 320.282 102.7 320.253 102.658 320.231C102.616 320.21 102.57 320.198 102.523 320.196C102.476 320.194 102.429 320.202 102.386 320.22C102.342 320.237 102.303 320.264 102.27 320.298C95.9305 325.378 95.9805 335.598 95.9805 336.038C95.983 336.083 95.9946 336.128 96.0148 336.169C96.0349 336.21 96.063 336.246 96.0975 336.276C96.1321 336.306 96.1723 336.329 96.2157 336.343C96.2592 336.357 96.305 336.362 96.3505 336.358Z" fill="#263238"/>
<path d="M91.3195 336.248H91.3995C91.4413 336.237 91.4806 336.219 91.515 336.193C91.5494 336.167 91.5782 336.134 91.5997 336.097C91.6211 336.059 91.6349 336.018 91.64 335.975C91.6451 335.933 91.6415 335.889 91.6295 335.848C90.9923 333.654 89.9991 331.58 88.6895 329.708C88.6645 329.672 88.6329 329.642 88.5962 329.619C88.5596 329.596 88.5188 329.58 88.4761 329.573C88.4333 329.565 88.3896 329.566 88.3473 329.576C88.3049 329.585 88.2649 329.603 88.2295 329.628C88.1615 329.681 88.1165 329.759 88.1035 329.844C88.0905 329.929 88.1105 330.017 88.1595 330.088C89.4229 331.897 90.3822 333.9 90.9995 336.018C91.0195 336.086 91.0619 336.146 91.1199 336.188C91.1779 336.23 91.2481 336.251 91.3195 336.248Z" fill="#263238"/>
<path d="M89.3386 331.248C89.3386 331.248 89.4586 327.728 87.9486 327.248C86.4386 326.768 85.0586 328.008 83.9486 328.758C82.8386 329.508 81.5586 330.268 81.5586 332.538C81.6882 334.694 81.9824 336.837 82.4386 338.948C82.4386 338.948 83.6986 335.048 85.8386 333.288C86.8307 332.345 88.0292 331.646 89.3386 331.248Z" fill="#92E3A9"/>
<path d="M98.6202 336.358C98.6891 336.355 98.7557 336.332 98.8111 336.291C98.8664 336.25 98.908 336.193 98.9302 336.128C99.5792 334.246 100.71 332.567 102.21 331.258C102.25 331.234 102.284 331.202 102.31 331.163C102.337 331.125 102.355 331.082 102.363 331.036C102.372 330.991 102.371 330.944 102.36 330.899C102.349 330.854 102.329 330.811 102.3 330.775C102.272 330.738 102.236 330.707 102.196 330.685C102.155 330.663 102.11 330.65 102.064 330.647C102.017 330.643 101.971 330.65 101.927 330.665C101.884 330.681 101.844 330.706 101.81 330.738C100.205 332.128 98.9972 333.919 98.3102 335.928C98.2963 335.969 98.2907 336.012 98.2938 336.054C98.2969 336.097 98.3086 336.139 98.3282 336.177C98.3478 336.216 98.3749 336.25 98.4079 336.277C98.4409 336.305 98.4791 336.325 98.5203 336.338L98.6202 336.358Z" fill="#263238"/>
<path d="M100.16 332.358C99.8844 331.01 100.154 329.607 100.91 328.458C102.17 326.828 105.19 327.198 106.7 328.958C108.21 330.718 110.35 336.008 110.35 336.008C108.454 334.582 106.179 333.751 103.81 333.618C100.28 333.618 100.16 332.358 100.16 332.358Z" fill="#92E3A9"/>
<path d="M90.1294 355.638H100.169L105.189 339.038H85.1094L90.1294 355.638Z" fill="#263238" stroke="#263238" stroke-linecap="round" stroke-linejoin="round"/>
<path d="M85.06 339.038H105.25V336.288H85.06V339.038Z" fill="#263238" stroke="#263238" stroke-linecap="round" stroke-linejoin="round"/>
</g>
<defs>
<clipPath id="clip0_164_2648">
<rect width="476" height="358.299" fill="white"/>
</clipPath>
</defs>
</svg>
