<svg width="432" height="394" viewBox="0 0 432 394" fill="none" xmlns="http://www.w3.org/2000/svg">
<path d="M419.058 393.555C426.009 393.555 431.683 387.982 431.789 381.031C432.321 346.386 435.112 295.285 369.867 281.152C317.068 269.715 348.372 175.884 206.178 181.947C104.106 186.299 131.223 272.334 51.859 279.499C-0.951012 284.267 -1.40801 351.058 0.620988 381.662C1.06499 388.356 6.61799 393.556 13.327 393.556H419.058V393.555Z" fill="#B5DFEA"/>
<path opacity="0.55" d="M369.867 281.152C317.068 269.715 348.372 175.884 206.178 181.947C181.901 182.982 164.941 188.643 152.11 196.76C156.433 196.194 161.021 195.795 165.911 195.587C308.105 189.524 276.801 283.355 329.6 294.792C394.149 308.774 392.106 358.94 391.54 393.556H419.058C426.009 393.556 431.683 387.983 431.789 381.032C432.321 346.387 435.112 295.285 369.867 281.152Z" fill="#90CEDD"/>
<path d="M146.015 0H143.77V163.799H146.015V0Z" fill="#79C9E8"/>
<path d="M306.989 0H304.744V188.961H306.989V0Z" fill="#79C9E8"/>
<path d="M306.774 177.946L139.827 158.46C132.692 157.627 126.233 162.736 125.401 169.871L112.941 276.625C112.108 283.76 117.217 290.219 124.352 291.051L291.299 310.537C298.434 311.37 304.893 306.261 305.725 299.126L318.185 192.372C319.017 185.238 313.909 178.779 306.774 177.946Z" fill="#D7F0F9"/>
<path d="M316.951 202.939L318.184 192.372C319.017 185.237 313.908 178.778 306.773 177.946L139.827 158.46C132.692 157.627 126.233 162.736 125.401 169.871L124.168 180.438L316.951 202.939Z" fill="#0582C1"/>
<path d="M151.178 245.079L172.34 207.793C173.696 205.404 176.35 204.059 179.078 204.377C182.828 204.815 185.513 208.21 185.076 211.96L180.674 249.676L180.862 249.698C183.46 250.001 185.321 252.354 185.018 254.952C184.715 257.55 182.362 259.411 179.764 259.108L179.576 259.086L178.774 265.955C178.447 268.761 175.906 270.77 173.1 270.443C170.294 270.115 168.285 267.575 168.612 264.769L169.414 257.9L154.179 256.122C151.576 255.818 149.713 253.462 150.016 250.859L150.42 247.398C150.515 246.581 150.773 245.793 151.178 245.079ZM170.584 247.868L173.314 224.478C173.333 224.316 173.115 224.245 173.035 224.387L160.532 246.45C160.311 246.84 160.559 247.328 161.004 247.38L169.89 248.417C170.234 248.457 170.544 248.211 170.584 247.868Z" fill="#79C9E8"/>
<path d="M244.574 255.98L265.736 218.694C267.092 216.305 269.746 214.96 272.474 215.278C276.224 215.716 278.909 219.111 278.472 222.861L274.07 260.577L274.258 260.599C276.856 260.902 278.717 263.255 278.414 265.853C278.111 268.451 275.758 270.312 273.16 270.009L272.972 269.987L272.17 276.856C271.842 279.662 269.302 281.671 266.496 281.344C263.69 281.016 261.681 278.476 262.008 275.67L262.81 268.801L247.575 267.023C244.972 266.719 243.109 264.363 243.412 261.76L243.816 258.299C243.911 257.482 244.169 256.694 244.574 255.98ZM263.981 258.769L266.711 235.379C266.73 235.217 266.512 235.146 266.432 235.288L253.929 257.351C253.708 257.74 253.956 258.229 254.401 258.281L263.288 259.318C263.63 259.358 263.941 259.112 263.981 258.769Z" fill="#79C9E8"/>
<path d="M202.588 223.144C203.818 212.606 210.072 207.231 220.235 208.418C230.397 209.604 235.246 216.274 234.016 226.813L230.018 261.063C228.788 271.602 222.533 276.976 212.371 275.79C202.208 274.604 197.36 267.934 198.59 257.395L202.588 223.144ZM208.864 259.26C208.315 263.965 210.176 265.994 213.469 266.378C216.762 266.762 219.041 265.217 219.59 260.512L223.741 224.945C224.29 220.24 222.429 218.211 219.136 217.827C215.843 217.443 213.564 218.989 213.015 223.694L208.864 259.26Z" fill="#79C9E8"/>
<path d="M143.848 173.212C143.624 175.129 141.888 176.502 139.971 176.279C138.054 176.055 136.681 174.319 136.905 172.402C137.129 170.485 138.864 169.112 140.782 169.336C142.7 169.56 144.072 171.295 143.848 173.212Z" fill="white"/>
<path d="M160.594 175.167C160.37 177.084 158.634 178.457 156.717 178.234C154.8 178.01 153.427 176.274 153.65 174.357C153.874 172.44 155.61 171.067 157.527 171.291C159.445 171.514 160.818 173.25 160.594 175.167Z" fill="#79C9E8"/>
<path d="M177.953 177.193C177.729 179.11 175.993 180.483 174.076 180.259C172.159 180.035 170.786 178.299 171.01 176.382C171.234 174.465 172.97 173.092 174.887 173.316C176.804 173.54 178.177 175.276 177.953 177.193Z" fill="#FFBF4D"/>
<path d="M110.793 298.792C110.793 298.792 108.538 308.79 108.914 319.013C109.251 328.165 108.162 388.323 108.162 388.323H115.51C115.51 388.323 125.97 341.207 126.361 337.486C126.752 333.765 132.013 296.556 132.013 296.556L110.793 298.792Z" fill="#00668E"/>
<path d="M115.679 296.048C115.679 296.048 117.37 308.902 120.245 318.035C123.12 327.168 137.252 388.322 137.252 388.322H144.6C144.6 388.322 143.247 341.206 142.739 337.485C142.232 333.764 138.511 296.555 138.511 296.555L115.679 296.048Z" fill="#0582C1"/>
<path d="M137.853 388.311V393.439H151.841C152.636 393.439 152.946 392.409 152.285 391.968C150.239 390.606 146.963 388.729 143.917 388.31H137.853V388.311Z" fill="#0582C1"/>
<path d="M108.537 388.311V393.439H122.525C123.32 393.439 123.63 392.409 122.969 391.968C120.923 390.606 117.647 388.729 114.601 388.31H108.537V388.311Z" fill="#0582C1"/>
<path d="M133.774 236.255C133.774 236.255 138.585 228.95 133.061 228.237C128.82 227.69 127.075 228.953 127.075 228.953C127.075 228.953 122.192 228.415 119.519 230.731C117.688 232.318 110.966 244.629 121.835 249.083C132.704 253.538 130.388 242.134 130.388 242.134L133.774 236.255Z" fill="#00668E"/>
<path d="M133.062 228.237C128.821 227.69 127.076 228.953 127.076 228.953C127.076 228.953 122.193 228.415 119.52 230.731C117.689 232.318 110.967 244.629 121.836 249.083C126.945 251.177 129.14 249.766 130.032 247.684C119.719 250.585 118.602 238.156 120.302 234.62C122.03 231.026 126.176 232.685 126.176 232.685C127.798 228.603 133.083 229.045 135.261 229.363C134.865 228.796 134.177 228.381 133.062 228.237Z" fill="#05556D"/>
<path d="M127.003 239.818C127.003 239.818 125.578 238.393 124.509 239.818C123.44 241.244 124.153 244.451 125.934 244.629C125.934 244.629 125.399 249.262 121.836 249.083V252.825H130.21V249.974C130.21 249.974 135.377 247.836 135.199 243.56C135.021 239.284 133.774 236.255 133.774 236.255C133.774 236.255 130.923 239.462 127.003 239.818Z" fill="#F98D3D"/>
<path d="M128.285 251.173C129.114 251.518 128.969 252.041 129.006 252.826H130.211V249.975C130.211 249.975 128.182 250.62 125.21 248.927C125.21 248.927 126.939 250.612 128.285 251.173Z" fill="#ED701B"/>
<path d="M129.999 232.999C129.999 232.999 125.658 231.27 125.151 232.567C124.819 233.416 125.664 234.148 126.822 234.886L125.8 235.054C125.573 235.092 125.491 235.382 125.67 235.526C125.955 235.756 126.742 235.911 128.383 235.968L129.999 232.999Z" fill="#F98D3D"/>
<path d="M160.995 243.871C152.718 237.737 130.111 232.833 130.111 232.833L128.248 236.228C128.248 236.228 148.771 244.181 147.416 245.366C146.621 246.066 136.591 250.661 133.197 252.207C132.468 252.538 131.673 252.7 130.863 252.686L120.473 252.627C120.473 252.627 112.977 251.736 107.078 258.511C101.806 264.579 92.8439 278.629 92.8439 278.629L107.94 300.831L109.612 303.283L109.627 303.253L109.612 303.459C109.612 303.459 110.149 303.518 111.099 303.606C115.952 304.055 131.504 305.285 139.737 303.54L139.965 303.488L139.575 267.067C152.719 256.662 158.993 248.628 161.239 246.102C161.827 245.432 161.717 244.409 160.995 243.871ZM110.34 293.54L108.867 290.322L104.176 280.072L111.96 271.353L110.561 290.484L110.34 293.54Z" fill="#FFBF4D"/>
<path d="M108.867 290.322L110.34 293.54L109.625 303.253L109.611 303.282L107.939 300.83L108.867 290.322Z" fill="#EFAA3A"/>
<path opacity="0.29" d="M136.062 265.758C134.664 266.773 135.018 275.781 134.673 281.412C134.095 290.843 133.532 299.004 133.947 304.266C136.078 304.126 138.06 303.895 139.736 303.54L139.964 303.488L139.574 267.067C152.718 256.662 158.992 248.628 161.238 246.102C161.827 245.432 161.717 244.408 160.995 243.871C160.995 243.871 150.605 255.199 136.062 265.758Z" fill="#F98D2B"/>
<path d="M142.74 337.485C142.374 334.8 140.335 314.681 139.228 303.685L133.947 304.266C133.947 304.266 141.651 367.599 142.157 388.322H144.601C144.601 388.322 143.248 341.206 142.74 337.485Z" fill="#00668E"/>
<path d="M108.881 240.857L107.289 238.002C108.087 236.497 108.543 234.783 108.543 232.961C108.543 227.007 103.716 222.18 97.7619 222.18C91.8079 222.18 86.981 227.007 86.981 232.961C86.981 238.915 91.8079 243.742 97.7619 243.742C100.76 243.742 103.47 242.517 105.424 240.542L108.881 240.857Z" fill="#0582C1"/>
<path d="M92.1539 231.988H92.5739V233.491C92.5739 233.951 92.7109 234.149 93.0349 234.149C93.2879 234.149 93.4649 234.022 93.6979 233.734V231.988H94.1129V234.447H93.7699L93.7339 234.062H93.7189C93.4909 234.33 93.2489 234.507 92.9089 234.507C92.3879 234.507 92.1549 234.173 92.1549 233.546L92.1539 231.988Z" fill="white"/>
<path d="M95.862 234.654V235.484H95.447V231.987H95.792L95.827 232.27H95.8419C96.0649 232.083 96.338 231.926 96.627 231.926C97.259 231.926 97.598 232.417 97.598 233.181C97.598 234.016 97.097 234.507 96.535 234.507C96.308 234.507 96.08 234.401 95.852 234.224L95.862 234.654ZM96.464 234.159C96.869 234.159 97.167 233.79 97.167 233.183C97.167 232.641 96.984 232.277 96.519 232.277C96.311 232.277 96.1039 232.393 95.8609 232.611V233.901C96.0839 234.088 96.302 234.159 96.464 234.159Z" fill="white"/>
<path d="M98.6939 233.89C98.9069 234.062 99.1239 234.184 99.4179 234.184C99.7419 234.184 99.9039 234.012 99.9039 233.799C99.9039 233.546 99.6109 233.435 99.3419 233.334C98.9929 233.208 98.6079 233.04 98.6079 232.626C98.6079 232.231 98.9219 231.928 99.4529 231.928C99.7619 231.928 100.03 232.054 100.217 232.206L100.02 232.469C99.8529 232.343 99.6759 232.252 99.4579 232.252C99.1489 232.252 99.0079 232.419 99.0079 232.606C99.0079 232.834 99.2759 232.925 99.5539 233.031C99.9079 233.162 100.303 233.309 100.303 233.775C100.303 234.174 99.9839 234.509 99.4019 234.509C99.0529 234.509 98.7189 234.362 98.4859 234.17L98.6939 233.89Z" fill="white"/>
<path d="M101.602 233.87C101.764 233.87 101.901 234.001 101.901 234.194C101.901 234.376 101.764 234.507 101.602 234.507C101.435 234.507 101.298 234.375 101.298 234.194C101.299 234.002 101.435 233.87 101.602 233.87Z" fill="white"/>
<path d="M103.367 233.87C103.529 233.87 103.666 234.001 103.666 234.194C103.666 234.376 103.529 234.507 103.367 234.507C103.2 234.507 103.063 234.375 103.063 234.194C103.064 234.002 103.201 233.87 103.367 233.87Z" fill="white"/>
<path d="M67.545 370.495C67.545 370.495 65.28 368.38 66.8 360.356C68.32 352.332 72.176 344.626 70.284 335.921C68.392 327.216 53.559 305.266 53.509 303.807C53.459 302.347 48.933 329.342 56.604 339.976C64.275 350.61 65.198 354.299 64.857 359.891C64.516 365.483 64.936 369.987 65.777 371.287L67.545 370.495Z" fill="#79C9E8"/>
<path d="M66.141 354.356C65.249 357.935 64.711 366.911 66.136 369.059C66.269 369.26 66.46 369.145 66.698 368.775C66.264 367.291 65.979 364.691 66.8 360.356C68.32 352.332 72.176 344.626 70.284 335.921C68.392 327.216 53.559 305.267 53.509 303.807C53.509 303.807 55.744 322.094 63.272 334.682C68.662 343.692 67.033 350.776 66.141 354.356Z" fill="#49B4D6"/>
<path d="M70.2499 369.937C70.2499 369.937 65.8919 359.057 73.2779 349.637C80.6629 340.217 92.4749 328.121 92.7099 323.329C92.7099 323.329 95.7449 346.079 86.1329 352.52C76.5199 358.96 69.7789 359.988 71.4459 369.896L70.2499 369.937Z" fill="#79C9E8"/>
<path d="M80.625 347.946C69.906 355.748 69.03 364.735 70.693 368.903C70.822 369.227 71.067 369.425 71.39 369.531C69.953 359.967 76.639 358.879 86.131 352.52C95.744 346.08 92.708 323.329 92.708 323.329C92.708 323.329 91.344 340.145 80.625 347.946Z" fill="#49B4D6"/>
<path d="M63.083 370.182C63.083 370.182 64.481 364.421 63.737 358.201C62.993 351.981 56.496 348.483 50.425 341.913C47.302 338.533 46.378 320.659 48.314 318.998C48.314 318.998 37.596 331.987 39.249 341.497C40.902 351.007 58.387 357.187 60.005 361.783C61.623 366.378 61.489 370.236 61.489 370.236L63.083 370.182Z" fill="#79C9E8"/>
<path d="M44.692 324.11C41.149 333.703 44.781 345.321 56.548 352.537C65.211 357.85 62.452 368.897 62.452 368.897L63.867 364.539C63.992 362.655 64.006 360.46 63.736 358.201C62.992 351.981 56.495 348.483 50.424 341.913C47.412 338.653 46.446 321.915 48.119 319.24C47.629 319.858 46.242 321.655 44.692 324.11Z" fill="#49B4D6"/>
<path d="M48.12 319.24C48.241 319.087 48.314 318.998 48.314 318.998C48.246 319.057 48.182 319.142 48.12 319.24Z" fill="#49B4D6"/>
<path d="M72.493 369.462C72.493 369.462 75.005 360.141 81.218 358.886C87.431 357.631 94.565 348.451 94.951 346.65C94.951 346.65 93.903 363.965 72.493 369.462Z" fill="#79C9E8"/>
<path d="M80.863 361.968C77.056 363.872 75.473 366.432 74.911 368.756C93.973 362.626 94.951 346.651 94.951 346.651C94.875 347.007 94.527 347.658 93.983 348.472C92.113 351.747 87.587 358.606 80.863 361.968Z" fill="#49B4D6"/>
<path d="M85.937 366.03H53.442L57.301 390.3C57.594 392.141 59.181 393.496 61.045 393.496H78.334C80.198 393.496 81.785 392.141 82.078 390.3L85.937 366.03Z" fill="#FFBF4D"/>
<path d="M85.299 370.045L85.937 366.03H53.442L54.081 370.045H85.299Z" fill="#FF9F50"/>
<path d="M78.065 366.03L74.206 390.3C73.913 392.141 72.326 393.495 70.462 393.495H78.334C80.198 393.495 81.785 392.14 82.078 390.3L85.937 366.03H78.065Z" fill="#FF9F50"/>
<path d="M310.065 322.747H163.202V352.607H310.065V322.747Z" fill="#FFBF4D"/>
<path opacity="0.29" d="M310.065 322.747H163.202V329.995H310.065V322.747Z" fill="#F98D2B"/>
<path d="M175.972 322.747H189.376L185.783 329.998H172.372L175.972 322.747Z" fill="#F77E2D"/>
<path d="M206.171 322.747H219.575L215.982 329.998H202.578L206.171 322.747Z" fill="#F77E2D"/>
<path d="M236.37 322.747H249.775L246.182 329.998H232.778L236.37 322.747Z" fill="#F77E2D"/>
<path d="M266.57 322.747H279.967L276.374 329.998H262.977L266.57 322.747Z" fill="#F77E2D"/>
<path d="M310.065 322.747V322.949L306.566 329.998H293.176L296.769 322.747H310.065Z" fill="#F77E2D"/>
<path d="M191.837 352.61H181.484V393.439H191.837V352.61Z" fill="#79C9E8"/>
<path d="M191.837 352.61H189.485V393.439H191.837V352.61Z" fill="#49B4D6"/>
<path d="M292.588 352.61H282.235V393.439H292.588V352.61Z" fill="#79C9E8"/>
<path d="M292.588 352.61H289.527V393.439H292.588V352.61Z" fill="#49B4D6"/>
<path d="M191.837 352.578H181.484V357.72H191.837V352.578Z" fill="#49B4D6"/>
<path d="M292.588 352.578H282.235V357.72H292.588V352.578Z" fill="#49B4D6"/>
<path d="M191.837 318.082H181.484V322.718H191.837V318.082Z" fill="#79C9E8"/>
<path d="M191.837 318.082H189.485V322.718H191.837V318.082Z" fill="#49B4D6"/>
<path d="M292.588 318.082H282.235V322.718H292.588V318.082Z" fill="#79C9E8"/>
<path d="M292.588 318.082H289.527V322.718H292.588V318.082Z" fill="#49B4D6"/>
<path d="M191.837 322.138H181.484V322.722H191.837V322.138Z" fill="#49B4D6"/>
<path d="M292.588 322.138H282.235V322.722H292.588V322.138Z" fill="#49B4D6"/>
<path d="M189.376 322.747L174.565 352.608H163.202V348.488L175.972 322.747H189.376Z" fill="#0582C1"/>
<path d="M206.171 322.747L191.36 352.608H204.764L219.575 322.747H206.171Z" fill="#0582C1"/>
<path d="M249.775 322.747L234.964 352.608H221.559L236.37 322.747H249.775Z" fill="#0582C1"/>
<path d="M279.967 322.747L265.163 352.608H251.759L266.57 322.747H279.967Z" fill="#0582C1"/>
<path d="M296.769 322.747L281.958 352.608H295.355L310.065 322.949L296.769 322.747Z" fill="#0582C1"/>
<path d="M189.376 322.747L185.783 329.998H172.372L175.972 322.747H189.376Z" fill="#00668E"/>
<path d="M219.575 322.747L215.982 329.998H202.578L206.171 322.747H219.575Z" fill="#00668E"/>
<path d="M249.775 322.747L246.182 329.998H232.778L236.37 322.747H249.775Z" fill="#00668E"/>
<path d="M279.967 322.747L276.374 329.998H262.977L266.57 322.747H279.967Z" fill="#00668E"/>
<path d="M310.065 322.949L306.566 329.998H293.176L296.769 322.747L310.065 322.949Z" fill="#00668E"/>
<path opacity="0.55" d="M307.535 335.666H167.295V350.602H307.535V335.666Z" fill="url(#paint0_linear_6_153)"/>
<path d="M187.856 320.719C192.888 319.9 196.303 315.157 195.484 310.125C194.666 305.094 189.923 301.678 184.891 302.497C179.859 303.316 176.444 308.059 177.262 313.09C178.081 318.122 182.824 321.538 187.856 320.719Z" fill="#FFBF4D"/>
<path d="M190.574 311.602C190.574 309.292 188.701 307.419 186.391 307.419C184.081 307.419 182.208 309.292 182.208 311.602C182.208 313.912 184.081 315.785 186.391 315.785C188.701 315.785 190.574 313.912 190.574 311.602Z" fill="#0582C1"/>
<path d="M288.816 320.723C293.848 319.905 297.263 315.162 296.444 310.13C295.625 305.098 290.883 301.683 285.851 302.501C280.819 303.32 277.403 308.063 278.222 313.095C279.041 318.127 283.784 321.542 288.816 320.723Z" fill="#FFBF4D"/>
<path d="M291.534 311.602C291.534 309.292 289.661 307.419 287.351 307.419C285.041 307.419 283.168 309.292 283.168 311.602C283.168 313.912 285.041 315.785 287.351 315.785C289.661 315.785 291.534 313.912 291.534 311.602Z" fill="#0582C1"/>
<path d="M365.705 390.274H318.932L326.087 372.931V372.921L328.964 365.923L329.757 364.005L331.049 360.883L331.313 360.247L334.191 353.249L334.72 351.977L339.819 339.596C340.739 337.364 343.9 337.364 344.82 339.596L349.919 351.977L350.448 353.249L353.325 360.247L353.589 360.883L354.881 364.005L355.674 365.923L358.552 372.921V372.931L365.705 390.274Z" fill="#FFBF4D"/>
<path opacity="0.29" d="M321.998 382.838L318.934 390.273H365.71L362.645 382.838H321.998Z" fill="#F98D2B"/>
<path d="M368.766 385.828H315.195V393.401H368.766V385.828Z" fill="#79C9E8"/>
<path d="M368.765 385.828H357.191V393.401H368.765V385.828Z" fill="#49B4D6"/>
<path opacity="0.29" d="M363.865 385.825H357.249L351.934 372.935V372.925L349.057 365.927L348.264 364.009L346.972 360.887L346.708 360.251L343.831 353.253L343.302 351.981L339.015 341.558L339.818 339.601C340.738 337.369 343.899 337.369 344.819 339.601L349.918 351.982L350.447 353.254L353.324 360.252L353.588 360.888L354.88 364.01L355.673 365.928L358.551 372.926V372.936L363.865 385.825Z" fill="#F98D2B"/>
<path d="M353.324 360.247H331.313L334.19 353.249H350.447L353.324 360.247Z" fill="#0582C1"/>
<path d="M358.551 372.921V372.931H326.086V372.921L328.964 365.923H355.673L358.551 372.921Z" fill="#0582C1"/>
<path d="M353.324 360.247H346.708L343.831 353.249H350.447L353.324 360.247Z" fill="#00668E"/>
<path d="M358.551 372.921V372.931H351.934V372.921L349.057 365.923H355.673L358.551 372.921Z" fill="#00668E"/>
<path d="M67.558 220.208C71.053 220.208 74.091 217.67 74.563 214.208C74.648 213.587 74.691 212.953 74.691 212.309C74.691 204.6 68.441 198.351 60.732 198.351C60.416 198.351 60.103 198.365 59.792 198.386C59.155 190.784 52.787 184.812 45.02 184.812C36.83 184.812 30.192 191.451 30.192 199.641C30.192 200.004 30.21 200.363 30.235 200.72C27.911 199.422 25.202 198.728 22.322 198.86C14.874 199.201 8.75397 205.159 8.22697 212.597C8.22297 212.656 8.21897 212.715 8.21597 212.774C7.97597 216.819 11.246 220.211 15.298 220.211H67.558V220.208Z" fill="#D7F0F9"/>
<path d="M400.692 231.172C411.73 231.172 412.341 214.56 401.316 214.024C401.015 214.009 400.712 214.002 400.407 214.002C398.439 214.002 396.544 214.314 394.766 214.885C393.29 205.893 385.487 199.032 376.078 199.032C366.462 199.032 358.525 206.199 357.304 215.483C355.022 214.389 352.467 213.776 349.767 213.776C348.259 213.776 346.796 213.967 345.4 214.327C335.748 216.813 337.774 231.173 347.741 231.173H400.692V231.172Z" fill="#D7F0F9"/>
<path d="M268.135 149.323C279.17 149.323 279.781 132.716 268.759 132.18C268.458 132.165 268.155 132.158 267.85 132.158C265.883 132.158 263.988 132.47 262.211 133.041C260.736 124.052 252.935 117.193 243.529 117.193C233.916 117.193 225.981 124.358 224.761 133.639C222.48 132.545 219.925 131.932 217.226 131.932C215.719 131.932 214.256 132.123 212.861 132.482C203.212 134.967 205.237 149.323 215.201 149.323H268.135Z" fill="#D7F0F9"/>
<path d="M92.446 180.018C107.057 180.018 118.901 168.174 118.901 153.563C118.901 138.952 107.057 127.108 92.446 127.108C77.8353 127.108 65.991 138.952 65.991 153.563C65.991 168.174 77.8353 180.018 92.446 180.018Z" fill="#FFBF4D"/>
<path d="M92.6629 127.113C99.8579 131.841 104.612 139.98 104.612 149.232C104.612 163.843 92.7679 175.687 78.1569 175.687C78.0839 175.687 78.0119 175.682 77.9399 175.682C82.1059 178.42 87.0879 180.017 92.4459 180.017C107.057 180.017 118.901 168.173 118.901 153.562C118.901 139.025 107.173 127.231 92.6629 127.113Z" fill="#FF9F50"/>
<defs>
<linearGradient id="paint0_linear_6_153" x1="237.414" y1="361.342" x2="237.414" y2="337.288" gradientUnits="userSpaceOnUse">
<stop stop-color="white"/>
<stop offset="1" stop-color="white" stop-opacity="0"/>
</linearGradient>
</defs>
</svg>
