<svg width="25" height="25" viewBox="0 0 25 25" fill="none" xmlns="http://www.w3.org/2000/svg">
<path fill-rule="evenodd" clip-rule="evenodd" d="M12.5 0C19.4044 0 25 5.59561 25 12.5C25 19.4044 19.4044 25 12.5 25C5.59561 25 0 19.4044 0 12.5C0 5.59561 5.59561 0 12.5 0ZM6.96859 12.8309C7.13651 11.858 8.24773 11.3196 9.12189 11.8431C9.20091 11.8925 9.27499 11.9469 9.34907 12.0111L9.35401 12.016C9.74911 12.3913 10.1887 12.7864 10.6233 13.1717L10.9986 13.5075L15.4435 8.84532C15.7053 8.57369 15.9028 8.39589 16.2979 8.30699C17.661 8.00573 18.6191 9.67009 17.6511 10.6924L12.1197 16.5004C11.5962 17.0585 10.6677 17.1079 10.1047 16.5745C9.78368 16.2782 9.43303 15.9719 9.08238 15.6657C8.46997 15.1324 7.84769 14.5891 7.339 14.0557C7.02785 13.7544 6.89945 13.2507 6.96859 12.8309Z" fill="#6BBE66"/>
</svg>
