<?xml version="1.0" encoding="UTF-8" standalone="no" ?>
<!DOCTYPE svg PUBLIC "-//W3C//DTD SVG 1.1//EN" "http://www.w3.org/Graphics/SVG/1.1/DTD/svg11.dtd">
<svg xmlns="http://www.w3.org/2000/svg" xmlns:xlink="http://www.w3.org/1999/xlink" version="1.1" width="1080" height="1080" viewBox="0 0 1080 1080" xml:space="preserve">
<desc>Created with Fabric.js 5.2.4</desc>
<defs>
</defs>
<g transform="matrix(1 0 0 1 540 540)" id="860022cd-d6fa-4bb0-a200-8381c23e7e29"  >
<rect style="stroke: none; stroke-width: 1; stroke-dasharray: none; stroke-linecap: butt; stroke-dashoffset: 0; stroke-linejoin: miter; stroke-miterlimit: 4; fill: rgb(255,255,255); fill-rule: nonzero; opacity: 1; visibility: hidden;" vector-effect="non-scaling-stroke"  x="-540" y="-540" rx="0" ry="0" width="1080" height="1080" />
</g>
<g transform="matrix(1 0 0 1 540 540)" id="0d11e096-f48f-4aa6-8646-a72fd064edb3"  >
</g>
<g transform="matrix(1 0 0 1 540 540)" id="d2868954-ec9b-4710-985d-22da32c80a41"  >
<path style="stroke: rgb(255,255,255); stroke-width: 0; stroke-dasharray: none; stroke-linecap: butt; stroke-dashoffset: 0; stroke-linejoin: miter; stroke-miterlimit: 4; fill: rgb(255,255,255); fill-rule: nonzero; opacity: 1;" vector-effect="non-scaling-stroke"  transform=" translate(-12, -12)" d="M 9 3 C 9 3.5522847498307932 8.552284749830793 4 8 4 L 5 4 C 4.447715250169207 4 4 4.447715250169207 4 5 L 4 8 C 4 8.552284749830793 3.5522847498307932 9 3 9 C 2.4477152501692068 9 2 8.552284749830793 2 8 L 2 5 C 2 3.3431457505076194 3.3431457505076194 2 5 2 L 8 2 C 8.552284749830793 2 9 2.4477152501692063 9 3 Z M 2 19 C 2 20.65685424949238 3.3431457505076194 22 5 22 L 8 22 C 8.552284749830793 22 9 21.552284749830793 9 21 C 9 20.447715250169207 8.552284749830793 20 8 20 L 5 20 C 4.447715250169207 20 4 19.552284749830793 4 19 L 4 16 C 4 15.447715250169207 3.5522847498307932 15 3 15 C 2.4477152501692068 15 2 15.447715250169207 2 16 Z M 21 15 C 20.447715250169207 15 20 15.447715250169207 20 16 L 20 19 C 20 19.552284749830793 19.552284749830793 20 19 20 L 16 20 C 15.447715250169207 20 15 20.447715250169207 15 21 C 15 21.552284749830793 15.447715250169207 22 16 22 L 19 22 C 20.65685424949238 22 22 20.65685424949238 22 19 L 22 16 C 22 15.447715250169207 21.552284749830793 15 21 15 Z M 19 2 L 16 2 C 15.447715250169207 2 15 2.4477152501692068 15 3 C 15 3.5522847498307932 15.447715250169207 4 16 4 L 19 4 C 19.552284749830793 4 20 4.447715250169207 20 5 L 20 8 C 20 8.552284749830793 20.447715250169207 9 21 9 C 21.552284749830793 9 22 8.552284749830793 22 8 L 22 5 C 22 3.3431457505076194 20.65685424949238 2 19 2 Z M 8 9 L 8 8 C 8 7.447715250169207 7.552284749830793 7 7 7 C 6.447715250169207 7 6 7.447715250169207 6 8 L 6 9 C 6 9.552284749830793 6.447715250169207 10 7 10 C 7.552284749830793 10 8 9.552284749830793 8 9 Z M 18 9 L 18 8 C 18 7.447715250169207 17.552284749830793 7 17 7 C 16.447715250169207 7 16 7.447715250169207 16 8 L 16 9 C 16 9.552284749830793 16.447715250169207 10 17 10 C 17.552284749830793 10 18 9.552284749830793 18 9 Z M 8.775 14.368 C 8.42595603810694 13.939979318881136 7.796020681118866 13.875956038106938 7.368000000000001 14.225 C 6.939979318881136 14.57404396189306 6.875956038106939 15.203979318881135 7.2250000000000005 15.632 C 8.359708642716024 17.12335506977413 10.12604598562413 17.99890558889533 12 17.99890558889533 C 13.873954014375872 17.99890558889533 15.640291357283981 17.12335506977413 16.775000000000002 15.631999999999998 C 17.124043961893065 15.203979318881135 17.060020681118868 14.57404396189306 16.632 14.225 C 16.203979318881135 13.875956038106938 15.574043961893063 13.939979318881136 15.225000000000001 14.368 C 14.471448957928917 15.395005138999181 13.273804823564879 16.00170014579724 12.000000000000002 16.00170014579724 C 10.726195176435125 16.00170014579724 9.528551042071086 15.395005138999181 8.775000000000002 14.368 Z M 11 7 C 10.447715250169207 7 10 7.447715250169207 10 8 L 10 11.01 C 10.005509856142075 12.662947667155647 11.347043149750824 14.000009183119037 13 14 C 13.552284749830793 13.997238576250846 13.997761423749154 13.547284749830794 13.995000000000001 12.995000000000001 C 13.992238576250847 12.442715250169206 13.542284749830793 11.997238576250846 12.99 12 C 12.443466582967286 11.999448780802974 12.000551219197026 11.556533417032714 12 11.01 L 12 8 C 12 7.447715250169207 11.552284749830793 7 11 7 Z" stroke-linecap="round" />
</g>
</svg>