<svg width="25" height="25" viewBox="0 0 25 25" fill="none" xmlns="http://www.w3.org/2000/svg">
<path opacity="0.5" d="M22.9173 12.5C22.9173 18.253 18.2536 22.9167 12.5007 22.9167C6.74768 22.9167 2.08398 18.253 2.08398 12.5C2.08398 6.74707 6.74768 2.08337 12.5007 2.08337C18.2536 2.08337 22.9173 6.74707 22.9173 12.5Z" fill="#1C274C"/>
<path d="M12.5 18.4896C12.9315 18.4896 13.2812 18.1398 13.2812 17.7084V11.4584C13.2812 11.0269 12.9315 10.6771 12.5 10.6771C12.0685 10.6771 11.7188 11.0269 11.7188 11.4584V17.7084C11.7188 18.1398 12.0685 18.4896 12.5 18.4896Z" fill="#1C274C"/>
<path d="M12.5007 7.29163C13.076 7.29163 13.5423 7.75799 13.5423 8.33329C13.5423 8.90859 13.076 9.37496 12.5007 9.37496C11.9253 9.37496 11.459 8.90859 11.459 8.33329C11.459 7.75799 11.9253 7.29163 12.5007 7.29163Z" fill="#1C274C"/>
</svg>
