<svg width="20" height="20" viewBox="0 0 20 20" fill="none" xmlns="http://www.w3.org/2000/svg">
<g id="photo-capture_14530074 1" clip-path="url(#clip0_267_657)">
<path id="Vector" d="M6.66667 18.75C6.66667 19.44 6.10667 20 5.41667 20H4.58333C2.05667 20 0 17.9433 0 15.4167V14.5833C0 13.8933 0.56 13.3333 1.25 13.3333C1.94 13.3333 2.5 13.8933 2.5 14.5833V15.4167C2.5 16.5658 3.43417 17.5 4.58333 17.5H5.41667C6.10667 17.5 6.66667 18.06 6.66667 18.75ZM18.75 13.3333C18.06 13.3333 17.5 13.8933 17.5 14.5833V15.4167C17.5 16.5658 16.5658 17.5 15.4167 17.5H14.5833C13.8933 17.5 13.3333 18.06 13.3333 18.75C13.3333 19.44 13.8933 20 14.5833 20H15.4167C17.9433 20 20 17.9433 20 15.4167V14.5833C20 13.8933 19.44 13.3333 18.75 13.3333ZM15.4167 0H14.5833C13.8933 0 13.3333 0.56 13.3333 1.25C13.3333 1.94 13.8933 2.5 14.5833 2.5H15.4167C16.5658 2.5 17.5 3.43417 17.5 4.58333V5.41667C17.5 6.10667 18.06 6.66667 18.75 6.66667C19.44 6.66667 20 6.10667 20 5.41667V4.58333C20 2.05667 17.9433 0 15.4167 0ZM1.25 6.66667C1.94 6.66667 2.5 6.10667 2.5 5.41667V4.58333C2.5 3.43417 3.43417 2.5 4.58333 2.5H5.41667C6.10667 2.5 6.66667 1.94 6.66667 1.25C6.66667 0.56 6.10667 0 5.41667 0H4.58333C2.05667 0 0 2.05667 0 4.58333V5.41667C0 6.10667 0.56 6.66667 1.25 6.66667ZM10 15C7.2425 15 5 12.7575 5 10C5 7.2425 7.2425 5 10 5C12.7575 5 15 7.2425 15 10C15 12.7575 12.7575 15 10 15ZM12.5 10C12.5 8.62167 11.3783 7.5 10 7.5C8.62167 7.5 7.5 8.62167 7.5 10C7.5 11.3783 8.62167 12.5 10 12.5C11.3783 12.5 12.5 11.3783 12.5 10Z" fill="black"/>
</g>
<defs>
<clipPath id="clip0_267_657">
<rect width="20" height="20" fill="white"/>
</clipPath>
</defs>
</svg>
