<svg width="60" height="60" viewBox="0 0 60 60" fill="none" xmlns="http://www.w3.org/2000/svg">
<path d="M30 60C46.5685 60 60 46.5685 60 30C60 13.4315 46.5685 0 30 0C13.4315 0 0 13.4315 0 30C0 46.5685 13.4315 60 30 60Z" fill="#757575"/>
<mask id="mask0_164_7021" style="mask-type:luminance" maskUnits="userSpaceOnUse" x="0" y="0" width="60" height="60">
<path d="M30 60C46.5685 60 60 46.5685 60 30C60 13.4315 46.5685 0 30 0C13.4315 0 0 13.4315 0 30C0 46.5685 13.4315 60 30 60Z" fill="white"/>
</mask>
<g mask="url(#mask0_164_7021)">
<path d="M58.4832 60.4267L55.787 54.9823C55.787 54.9823 54.3523 52.72 51.3178 51.6716C51.3178 51.6716 44.531 49.6302 43.5379 49.2991L40.6136 47.6989C40.473 47.8362 40.3243 47.9656 40.1752 48.0932C39.6637 48.5318 39.1248 48.9393 38.5674 49.3179C37.761 49.8656 36.9119 50.3531 36.0247 50.7579C34.9995 51.2256 33.92 51.5834 32.8075 51.7719C32.2198 51.8715 31.6236 51.9233 31.0274 51.9189C30.724 51.9168 30.42 51.8789 30.1181 51.8839C29.735 51.8904 29.352 51.9162 28.9686 51.9189C28.5796 51.9215 28.1907 51.9007 27.8041 51.858C26.6684 51.7328 25.558 51.4212 24.5026 50.9878C23.5689 50.6044 22.6751 50.1258 21.8264 49.5802C21.204 49.1801 20.604 48.7438 20.0336 48.2716C19.9913 48.2366 19.4121 47.6828 19.3833 47.6986L16.459 49.2988C15.4659 49.6299 8.67911 51.6713 8.67911 51.6713C5.64425 52.7197 4.20987 54.982 4.20987 54.982L1.51367 60.4264H58.4832V60.4267Z" fill="#363F20"/>
<path d="M34.5151 60.4267C39.655 56.9294 41.971 50.7288 41.971 50.7288C28.0952 60.1683 16.7734 49.0925 16.7734 49.0925C15.7985 50.0964 14.4282 50.6459 13.4613 51.6572C13.1249 52.0092 12.8021 52.414 12.4999 52.8394C12.1039 53.3965 11.7426 53.9892 11.4301 54.5454C10.838 55.5997 10.4343 56.7724 10.3711 57.986C10.3282 58.8103 10.462 59.6547 10.7601 60.4264H34.5151V60.4267Z" fill="#232818"/>
<path d="M3.19922 56.7268C4.18174 56.2732 5.19659 55.7954 5.89923 54.9722C6.22203 54.5939 6.46693 54.1555 6.77385 53.7645C7.82899 52.4204 9.50591 51.753 11.1023 51.1433C9.34362 51.6143 7.72256 52.0173 6.12354 52.8878C5.94215 52.9866 5.76193 53.0913 5.60788 53.2286C5.38386 53.4285 5.22423 53.6887 5.06812 53.9453C4.49983 54.877 3.76721 55.7948 3.19922 56.7268Z" fill="#232818"/>
<path d="M56.794 56.7268C55.8115 56.2732 54.7966 55.7954 54.094 54.9722C53.7712 54.5939 53.5266 54.1555 53.2193 53.7645C52.1642 52.4204 50.4873 51.753 48.8906 51.1433C50.6493 51.6143 52.2703 52.0173 53.8697 52.8878C54.051 52.9866 54.2313 53.0913 54.3853 53.2286C54.6093 53.4285 54.769 53.6887 54.9251 53.9453C55.4931 54.877 56.226 55.7948 56.794 56.7268Z" fill="#232818"/>
<path d="M44.5637 22.2017C44.4373 22.1605 44.3067 22.1397 44.1753 22.1397C44.0948 22.1397 44.0154 22.1476 43.939 22.1635L43.7702 22.1985L43.7884 22.0271C43.944 20.573 44.0095 19.3617 43.9951 18.2149C43.9804 17.3394 43.9204 16.6314 43.8067 15.9879C43.6761 15.2808 43.4886 14.5356 43.0049 13.8817C42.8973 13.7542 42.8015 13.6463 42.6948 13.5328C42.5987 13.4269 42.4946 13.3179 42.3749 13.1979C42.2121 13.028 42.0401 12.8642 41.8734 12.7061C41.8187 12.6543 41.7643 12.6023 41.7099 12.5503C41.1872 12.0737 40.74 11.693 40.3052 11.3537C39.8842 11.0177 39.4247 10.6808 38.8135 10.2607L38.0392 9.75294L37.246 9.28049C36.0136 8.58021 34.9581 8.0669 33.9268 7.66678C33.4732 7.4704 32.9996 7.31018 32.5415 7.15524C32.4227 7.11497 32.3037 7.07498 32.1852 7.03411C31.9774 6.95709 31.7601 6.898 31.5502 6.84067C31.467 6.81803 31.3838 6.79539 31.3009 6.77158L30.4063 6.52404C30.3995 6.52228 30.391 6.5211 30.3839 6.5211H30.3757L30.1455 6.52051H30.1384C30.1305 6.52051 30.1226 6.52169 30.1146 6.52375L29.1245 6.79275L28.6326 6.92651L28.149 7.08732L27.1803 7.41395L26.2304 7.79349C24.8669 8.37001 23.678 8.97739 22.5987 9.64945C21.4219 10.378 20.3133 11.1885 19.3028 12.0587C18.6872 12.6026 18.2312 13.0392 17.8255 13.4737C17.8052 13.4957 17.7841 13.5184 17.7626 13.5413C17.7259 13.5807 17.6888 13.6198 17.6529 13.6613C17.6356 13.6809 17.6191 13.6998 17.6024 13.7186C17.5609 13.7653 17.5218 13.8094 17.4789 13.8623C17.3604 14.0229 17.2666 14.1713 17.1955 14.3124C17.0467 14.5973 16.925 14.9169 16.8218 15.2911C16.6601 15.8909 16.5605 16.5371 16.5084 17.3244C16.4667 17.9468 16.4573 18.6156 16.4799 19.3685C16.5061 20.2058 16.5664 21.0686 16.6637 22.0059L16.6792 22.1549L16.5299 22.1444C16.5005 22.1423 16.4708 22.1411 16.4414 22.1411C16.3115 22.1411 16.185 22.1608 16.0657 22.1999C15.8108 22.2802 15.5765 22.4286 15.3869 22.6297C15.0588 22.9819 14.8859 23.4767 14.8735 24.1C14.8647 24.6636 14.9735 25.1966 15.0814 25.6437C15.1996 26.1203 15.3513 26.5801 15.5427 27.124C15.6235 27.3492 15.7038 27.5758 15.784 27.8025C16.0439 28.5366 16.3123 29.296 16.6172 30.0295C16.7239 30.2859 16.8259 30.5178 16.9286 30.738L16.9647 30.8144C17.0608 31.017 17.1602 31.2266 17.289 31.4195C17.4539 31.6653 17.6415 31.8325 17.8461 31.9163C17.9628 31.9645 18.0804 31.9886 18.1965 31.9886H18.2115C18.2841 31.9872 18.3582 31.9725 18.4317 31.9454L18.5452 31.9034L18.5914 32.0151C19.0112 33.0297 19.5806 34.0577 20.2842 35.0708C20.7451 35.7106 21.1494 36.2253 21.5551 36.689C22.0202 37.2214 22.4994 37.7215 22.9789 38.1754C23.282 38.462 23.5195 38.6725 23.7485 38.8586L23.8738 38.9606L23.9396 39.0141L23.9147 39.0953C23.9088 39.1141 23.9061 39.1294 23.9064 39.1438L24.0008 45.4487L24.0017 45.5069L23.9579 45.5452C23.6683 45.798 23.3478 46.0529 22.9183 46.3713C22.5517 46.642 22.1531 46.9234 21.6991 47.2312C21.1873 47.5766 20.6716 47.9121 20.1645 48.2296L20.1648 48.2299L20.151 48.2384C20.1727 48.2569 20.1945 48.2754 20.2162 48.294L20.2809 48.3492L20.2868 48.3542L20.2918 48.3598C22.8716 51.153 28.4736 51.9688 28.5379 51.9759C28.8493 51.9965 29.9794 51.8995 30.2945 51.8995C34.5536 51.8995 37.724 49.99 39.2345 48.852L39.268 48.8267H39.3098L39.3974 48.8264C39.423 48.7887 39.4497 48.7564 39.4791 48.7276C39.662 48.5491 39.8731 48.3739 40.1441 48.1764C40.1609 48.164 40.1785 48.1528 40.1967 48.1423C39.7452 47.8418 39.2754 47.5134 38.7671 47.143C38.3605 46.8446 37.9951 46.5659 37.6502 46.2907C37.2548 45.9744 36.939 45.706 36.6565 45.4452L36.6153 45.407L36.6162 45.3508L36.7091 39.1438C36.7085 39.0953 36.6894 39.0547 36.6553 39.025L36.5421 38.9262L36.6594 38.8325C36.9502 38.5996 37.2263 38.3474 37.4344 38.1533C37.9174 37.6997 38.4005 37.1999 38.8694 36.6678C39.3004 36.1742 39.7314 35.6285 40.1503 35.0462C40.8653 34.0263 41.4441 32.9847 41.8704 31.951L41.9216 31.8272L42.0418 31.886C42.1259 31.9272 42.2203 31.9525 42.322 31.9616C42.3543 31.9648 42.3861 31.9663 42.4178 31.9663C42.5072 31.9663 42.6019 31.954 42.6992 31.9295C42.8294 31.8943 42.9444 31.8366 43.0299 31.7631C43.1231 31.6867 43.2104 31.5923 43.2913 31.4806C43.4403 31.2739 43.5497 31.0435 43.6555 30.8206L43.6647 30.8012C43.7711 30.5754 43.8746 30.3423 43.981 30.0892C44.2947 29.3398 44.5696 28.5634 44.8356 27.8122C44.9121 27.5958 44.9888 27.3797 45.0661 27.164C45.2596 26.6163 45.413 26.1529 45.5342 25.674C45.6009 25.4103 45.6535 25.1519 45.6903 24.9064C45.7344 24.6183 45.7538 24.3616 45.7499 24.1217C45.7411 23.4938 45.5706 22.9943 45.2434 22.6365C45.052 22.4328 44.8168 22.2822 44.5637 22.2017Z" fill="#F9BF9A"/>
<path d="M36.4496 38.8698C36.4496 38.8698 35.0172 47.618 28.2319 46.0602C28.2319 46.0602 25.0448 45.1703 24.0167 41.9149C23.9664 41.2752 23.9888 40.5155 23.9382 39.8758C23.925 39.7091 24.1025 39.2478 24.236 39.1341C24.3895 39.0032 24.7405 39.5065 24.8416 39.6015C25.0748 39.8199 25.3264 40.0187 25.5931 40.1948C25.8703 40.3776 26.164 40.5361 26.4695 40.6666C26.9516 40.8727 27.4608 41.01 27.9456 41.2102C28.6985 41.5215 29.5399 42.1222 30.3948 41.8726C30.71 41.7806 31.0251 41.6877 31.3385 41.5903C31.965 41.396 32.5871 41.1846 33.193 40.9321C34.4049 40.427 35.4665 39.7273 36.4496 38.8698Z" fill="#BF7D5D"/>
<path d="M44.9396 24.2043C44.7094 24.0132 44.3696 23.9218 44.1062 24.0635C43.9645 24.1396 43.8619 24.2716 43.7781 24.4089C43.654 24.6115 43.5617 24.8338 43.5056 25.0645C43.3659 25.6363 43.4497 26.2355 43.4318 26.8238C43.3865 28.309 42.6971 29.6899 41.9941 30.999C42.6221 28.7335 43.0381 26.4092 43.2342 24.0667C43.2812 23.5058 43.3195 22.9284 43.5608 22.4201C43.5876 22.3636 43.6187 22.306 43.6705 22.2704C43.7278 22.2311 43.8007 22.2255 43.8701 22.2211C44.0289 22.2111 44.1891 22.2011 44.3461 22.2258C44.8802 22.3098 45.2827 22.7902 45.4391 23.3079C45.5955 23.8257 45.5535 24.3795 45.5103 24.919C45.5079 24.9493 45.4997 24.9737 45.4782 24.9951C45.2945 24.797 45.1983 24.4192 44.9396 24.2043Z" fill="#BF7D5D"/>
<path d="M15.4736 24.2043C15.7038 24.0132 16.0437 23.9218 16.3071 24.0635C16.4488 24.1396 16.5514 24.2716 16.6352 24.4089C16.7592 24.6115 16.8515 24.8338 16.9077 25.0645C17.0473 25.6363 16.9636 26.2355 16.9815 26.8238C17.0268 28.309 17.7162 29.6899 18.4191 30.999C17.7911 28.7335 17.3751 26.4092 17.179 24.0667C17.132 23.5058 17.0938 22.9284 16.8524 22.4201C16.8257 22.3636 16.7945 22.306 16.7428 22.2704C16.6854 22.2311 16.6125 22.2255 16.5431 22.2211C16.3844 22.2111 16.2245 22.2011 16.0672 22.2258C15.533 22.3098 15.1305 22.7902 14.9741 23.3079C14.8177 23.8257 14.8598 24.3795 14.903 24.919C14.9053 24.9493 14.9136 24.9737 14.9353 24.9951C15.1188 24.797 15.2146 24.4192 15.4736 24.2043Z" fill="#BF7D5D"/>
<path d="M29.3926 37.7555L30.5818 37.3519L30.6473 37.7555L29.9382 37.9084L29.3926 37.7555Z" fill="#BF7D5D"/>
<path d="M32.0858 33.0469C32.0858 33.0469 30.1943 35.2622 28.4062 33.0469L29.1121 33.2192L29.9435 33.3289L30.8246 33.2974L31.1974 33.1878L31.7583 33.1487L32.0858 33.0469Z" fill="#BF7D5D"/>
<path d="M28.5781 30.6398L28.4129 24.0444L27.3719 21.6249L22.9852 20.4936L20.1523 21.3121L22.7195 19.3676L27.1373 20.59L28.5719 21.7486L29.0864 24.1585C29.0864 24.1585 29.3404 28.1362 28.5781 30.6398Z" fill="#BF7D5D"/>
<path d="M31.6816 21.8251L32.399 21.6043L37.889 20.3904L36.3993 19.7283L31.9024 21.1077L31.6816 21.8251Z" fill="#BF7D5D"/>
<path d="M42.6792 14.0237C41.8984 13.1329 40.9759 12.31 40.0242 11.5657C39.0652 10.8222 38.0609 10.1325 37.0014 9.53859C35.9433 8.94444 34.8556 8.39732 33.7213 7.96369C33.1628 7.72467 32.5824 7.54534 32.008 7.35042C31.7228 7.24606 31.4264 7.17784 31.1345 7.09582L30.2564 6.8574L30.3202 6.86504L30.09 6.86563L30.154 6.85798C27.5569 7.51329 25.0542 8.54431 22.7705 9.94576C21.6316 10.6496 20.5444 11.4384 19.5301 12.3103C19.0291 12.7522 18.5379 13.2076 18.0843 13.6924C17.9725 13.8106 17.8544 13.9411 17.7603 14.054C17.6827 14.1851 17.5862 14.2983 17.5204 14.4415C17.3778 14.719 17.2649 15.0195 17.1811 15.3326C16.8439 16.5908 16.8204 17.9494 16.8492 19.2829C16.8898 20.6229 17.0203 21.9641 17.1911 23.3003C17.5392 25.9712 18.0507 28.6312 18.6764 31.2507L18.6696 31.2286C19.117 32.4893 19.7659 33.6776 20.5288 34.7859C21.304 35.8869 22.1884 36.9162 23.1638 37.8473C23.4081 38.0801 23.6548 38.3065 23.915 38.5196L24.3031 38.8412L24.704 39.1423C25.2482 39.5324 25.8259 39.8796 26.4224 40.1933C27.0181 40.5088 27.6301 40.7978 28.2569 41.0541C28.8825 41.3122 29.5173 41.5554 30.1643 41.7553L30.1652 41.7556H30.1026C31.4191 41.3857 32.7068 40.9009 33.9289 40.2924C34.5389 39.9863 35.1316 39.6465 35.6914 39.2602L36.1021 38.9591C36.2376 38.8568 36.3658 38.7442 36.4981 38.6372C36.7636 38.4217 37.0134 38.1933 37.2622 37.9587C38.2517 37.0176 39.1478 35.9772 39.9325 34.8618C40.7071 33.7408 41.3627 32.5348 41.8158 31.2554L41.8114 31.2704C42.1562 29.8369 42.4567 28.3866 42.7216 26.9337C42.9859 25.48 43.212 24.0194 43.3783 22.5536C43.5421 21.0883 43.6512 19.6151 43.6235 18.149C43.6047 17.4173 43.553 16.6861 43.4227 15.9755C43.2916 15.2714 43.077 14.5638 42.6792 14.0237ZM43.0473 13.7303C43.5283 14.3939 43.7329 15.1503 43.8708 15.8935C44.0022 16.6411 44.0495 17.3923 44.0636 18.1405C44.0813 19.6375 43.9605 21.1242 43.7852 22.6006C43.6074 24.077 43.3701 25.5437 43.0947 27.0025C42.8183 28.4616 42.5078 29.9113 42.1501 31.3554L42.1454 31.3706C41.6703 32.6839 40.9911 33.9107 40.195 35.0461C39.3889 36.1756 38.4737 37.2234 37.463 38.1718C37.2098 38.4076 36.9499 38.6416 36.6798 38.8577C36.5439 38.9662 36.4125 39.0797 36.2729 39.1835L35.8495 39.4895C35.2739 39.8811 34.668 40.2227 34.0465 40.529C32.8014 41.1385 31.4991 41.6183 30.1646 41.9834C30.1446 41.989 30.1241 41.989 30.1053 41.9843L30.102 41.9834L30.1011 41.9831C28.7652 41.6541 27.4673 41.1811 26.2278 40.5702C25.611 40.2595 25.0101 39.9123 24.438 39.5168L24.0152 39.2105L23.6125 38.8821C23.3438 38.664 23.0862 38.4294 22.8357 38.1927C21.8326 37.2428 20.9254 36.1962 20.1243 35.0685C19.3361 33.9331 18.6596 32.7092 18.188 31.3968L18.1813 31.3748C17.5383 28.7306 17.015 26.0676 16.6519 23.3703C16.472 22.0223 16.3421 20.665 16.2986 19.2985C16.27 17.9341 16.2847 16.55 16.6472 15.1841C16.7384 14.844 16.8624 14.5067 17.0294 14.1822C17.1059 14.0181 17.2264 13.8658 17.3249 13.7089C17.4472 13.5616 17.5574 13.4419 17.6774 13.3134C18.1486 12.8092 18.6508 12.343 19.1647 11.8893C20.2028 10.9953 21.3129 10.1886 22.4762 9.46862C23.6383 8.74511 24.8681 8.13537 26.1276 7.60266L27.0807 7.22194L28.0532 6.89415L28.54 6.73215L29.0351 6.59751L30.0253 6.32851C30.0444 6.32351 30.0632 6.32086 30.082 6.32086H30.0894L30.3196 6.32145H30.3278C30.3466 6.32145 30.366 6.32439 30.3834 6.3291L31.2792 6.57693C31.577 6.66219 31.8789 6.73362 32.1697 6.84122C32.7553 7.0429 33.3468 7.2293 33.9157 7.47566C35.071 7.924 36.1782 8.48728 37.2539 9.09849C38.3314 9.70969 39.3516 10.4173 40.3261 11.1805C41.2998 11.9534 42.2159 12.7716 43.0473 13.7303Z" fill="#02020C"/>
<path d="M16.7052 22.4151C16.3281 22.2472 15.8283 22.4104 15.5166 22.7367C15.2006 23.0581 15.0624 23.5502 15.0463 24.0347C15.0236 25.0258 15.3273 26.0259 15.6469 26.997C15.977 27.9751 16.2872 28.9605 16.6626 29.916C16.8555 30.3876 17.0442 30.88 17.2994 31.3028C17.4323 31.5091 17.6007 31.6911 17.8165 31.784C18.0294 31.879 18.2863 31.891 18.4742 31.7684L18.5709 31.9148C18.3198 32.0836 17.997 32.0671 17.7421 31.9592C17.477 31.8508 17.2768 31.6376 17.128 31.4159C16.9775 31.1907 16.8696 30.9517 16.7582 30.7177C16.6485 30.4819 16.5444 30.2438 16.4448 30.0042C16.0461 29.0443 15.7171 28.0642 15.3679 27.0922C15.0286 26.1168 14.6902 25.1101 14.6914 24.0238C14.702 23.4876 14.8331 22.9058 15.2388 22.4698C15.4379 22.259 15.6869 22.0961 15.97 22.0071C16.2504 21.9153 16.5768 21.9145 16.8675 22.0326L16.7052 22.4151Z" fill="#02020C"/>
<path d="M15.672 24.3928C15.4715 23.9891 15.5564 23.464 15.8851 23.1327C16.0424 22.9734 16.2867 22.8367 16.5507 22.9049C16.8026 22.9728 16.9876 23.1842 17.0475 23.4347C17.0628 23.4987 17.0234 23.5634 16.9593 23.5787C16.8952 23.594 16.8306 23.5546 16.8153 23.4905C16.8147 23.4876 16.8138 23.484 16.8135 23.4814C16.7868 23.315 16.6592 23.1492 16.4963 23.0977C16.3367 23.0407 16.1406 23.1198 15.9962 23.2506C15.7016 23.5102 15.5867 23.9794 15.7484 24.3578C15.7578 24.3789 15.7481 24.4036 15.7269 24.4131C15.7061 24.4213 15.6822 24.4122 15.672 24.3928Z" fill="#02020C"/>
<path d="M17.3462 26.3102C17.0325 26.461 16.8641 26.8135 16.8512 27.1478C16.8406 27.4897 16.9735 27.8204 17.1484 28.1162C17.3248 28.4143 17.5485 28.6871 17.7443 28.9899C17.9489 29.2904 18.0609 29.6529 18.3102 29.8219C18.3649 29.8589 18.379 29.933 18.3423 29.9877C18.3052 30.0424 18.2311 30.0565 18.1765 30.0198C18.1747 30.0186 18.1721 30.0165 18.1703 30.0153C18.0045 29.8892 17.9022 29.7175 17.8204 29.5567C17.7387 29.3927 17.6702 29.2392 17.5808 29.0905C17.4062 28.7915 17.1925 28.5054 17.0223 28.187C16.8538 27.8713 16.7259 27.5123 16.7538 27.1419C16.7841 26.7803 16.9823 26.4113 17.3257 26.2643C17.3383 26.2587 17.3533 26.2646 17.3586 26.2775C17.3642 26.2899 17.3583 26.3043 17.3462 26.3102Z" fill="#02020C"/>
<path d="M43.6403 22.0329C43.9331 21.9135 44.2615 21.9162 44.5438 22.0091C44.8281 22.1005 45.0785 22.2651 45.2773 22.4791C45.683 22.9207 45.8091 23.5075 45.817 24.0467C45.8126 25.1395 45.4678 26.1517 45.1259 27.1333C44.7745 28.1117 44.4423 29.0992 44.0384 30.0647C43.937 30.3058 43.8314 30.5451 43.7197 30.782C43.608 31.0172 43.4948 31.2589 43.3346 31.4811C43.2546 31.5917 43.162 31.6966 43.0535 31.7854C42.9436 31.8798 42.8063 31.9418 42.6713 31.9783C42.4006 32.0444 42.0995 32.0409 41.8438 31.8789L41.9405 31.7325C42.1304 31.8513 42.395 31.8577 42.6214 31.7957C42.853 31.7375 43.025 31.567 43.1685 31.3632C43.3093 31.1604 43.4145 30.9267 43.521 30.6906C43.6265 30.4551 43.7265 30.2167 43.822 29.9765C44.2027 29.0151 44.5152 28.0235 44.8478 27.0384C45.1706 26.0602 45.4804 25.0548 45.4628 24.0558C45.449 23.5672 45.3149 23.0701 44.998 22.744C44.6863 22.4133 44.183 22.246 43.8029 22.4153L43.6403 22.0329Z" fill="#02020C"/>
<path d="M44.7597 24.3572C44.9214 23.9792 44.8065 23.5097 44.5119 23.2501C44.3675 23.1193 44.1714 23.0405 44.0118 23.0972C43.8489 23.1489 43.721 23.3145 43.6946 23.4809C43.6843 23.5461 43.6232 23.5905 43.5579 23.5802C43.4926 23.5699 43.4482 23.5088 43.4585 23.4435C43.4588 23.4406 43.4597 23.4371 43.4603 23.4344C43.5203 23.1839 43.7052 22.9725 43.9571 22.9046C44.2211 22.8364 44.4654 22.9731 44.6227 23.1325C44.9511 23.4638 45.0361 23.9889 44.8359 24.3925C44.8256 24.4131 44.8003 24.4216 44.7797 24.4113C44.7594 24.4016 44.7512 24.3775 44.7597 24.3572Z" fill="#02020C"/>
<path d="M43.1816 26.2643C43.525 26.4113 43.7231 26.7803 43.7534 27.1419C43.7814 27.512 43.6535 27.871 43.485 28.187C43.3148 28.5057 43.1011 28.7915 42.9264 29.0905C42.8371 29.2392 42.7686 29.3924 42.6868 29.5567C42.6051 29.7175 42.5028 29.8895 42.337 30.0154C42.2846 30.0556 42.2097 30.0459 42.1694 29.9939C42.1291 29.9416 42.1388 29.8666 42.1909 29.8263C42.1926 29.8251 42.1953 29.8231 42.197 29.8219C42.4463 29.6531 42.5586 29.2904 42.763 28.9899C42.9588 28.6871 43.1825 28.4143 43.3589 28.1162C43.5341 27.8204 43.6667 27.4897 43.6561 27.1478C43.6432 26.8135 43.4747 26.4607 43.161 26.3102C43.1484 26.3043 43.1431 26.2893 43.149 26.277C43.1546 26.2646 43.1693 26.2593 43.1816 26.2643Z" fill="#02020C"/>
<path d="M30.0887 33.4409C30.0842 33.4409 30.0798 33.4409 30.0757 33.4409C29.4554 33.4371 28.8524 33.1446 28.502 32.6771C28.4567 32.6169 28.4688 32.5316 28.5293 32.486C28.5896 32.4405 28.6752 32.4531 28.7204 32.5134C29.0209 32.9138 29.541 33.1646 30.0775 33.1681C30.5952 33.1781 31.1103 32.9611 31.5163 32.5919C31.5716 32.5413 31.6583 32.5451 31.7088 32.601C31.7594 32.6569 31.7556 32.743 31.6997 32.7939C31.247 33.2054 30.6605 33.4409 30.0887 33.4409Z" fill="#02020C"/>
<path d="M28.2509 31.5328C28.1618 31.7304 28.0557 31.9271 27.9816 32.1241C27.9472 32.2223 27.9331 32.3187 27.9589 32.406C27.983 32.4951 28.0418 32.5812 28.1062 32.6571C28.372 32.9625 28.8153 33.0692 29.2099 33.0251L29.2116 33.0248L29.0858 33.1677L29.0832 33.113C29.0793 33.0378 29.1373 32.9737 29.2125 32.9699C29.2878 32.966 29.3519 33.024 29.3557 33.0992L29.3583 33.1539L29.3586 33.1618C29.3622 33.2327 29.3075 33.293 29.2366 33.2965L29.2322 33.2968H29.2302C28.9926 33.3053 28.7559 33.2674 28.536 33.1821C28.3167 33.0975 28.1127 32.9569 27.9707 32.7647C27.9016 32.6685 27.8396 32.565 27.8143 32.4392C27.7875 32.3113 27.8205 32.1829 27.8666 32.0791C27.9631 31.8727 28.0809 31.691 28.1868 31.4967C28.1965 31.479 28.2185 31.4723 28.2365 31.482C28.2532 31.4911 28.26 31.5117 28.2523 31.529L28.2509 31.5328Z" fill="#02020C"/>
<path d="M28.4975 21.4967C28.6307 21.9297 28.7477 22.3666 28.8621 22.8037C28.9782 23.2406 29.0826 23.6804 29.1869 24.1199C29.1884 24.1267 29.1893 24.134 29.1896 24.1408C29.2008 24.6953 29.2005 25.2474 29.1928 25.801C29.1831 26.354 29.1714 26.9073 29.1349 27.4597C29.1005 28.0121 29.0555 28.5645 28.9826 29.1148C28.9024 29.6631 28.81 30.2147 28.6128 30.7415C28.6025 30.7691 28.5716 30.7832 28.5437 30.7729C28.5166 30.7627 28.5025 30.733 28.5116 30.7059L28.5122 30.7041C28.6842 30.1885 28.7565 29.6393 28.8153 29.0945C28.8765 28.5489 28.9129 27.9994 28.937 27.4494C28.9856 26.3499 29.0041 25.2462 28.982 24.1461L28.9847 24.167C28.8856 23.726 28.7865 23.2853 28.6992 22.8417C28.6101 22.3983 28.5237 21.9547 28.4534 21.5072C28.4514 21.4949 28.4599 21.4831 28.4722 21.4814C28.4837 21.479 28.4943 21.4858 28.4975 21.4967Z" fill="#02020C"/>
<path d="M32.2558 31.4973C32.3617 31.6916 32.4796 31.873 32.576 32.0797C32.6222 32.1835 32.6551 32.3119 32.6283 32.4398C32.6031 32.5657 32.541 32.6691 32.4719 32.7653C32.3299 32.9575 32.1259 33.0981 31.9066 33.1827C31.6864 33.2683 31.45 33.3062 31.2125 33.2974H31.2104C31.1396 33.2962 31.0828 33.238 31.084 33.1669V33.163L31.0843 33.1545L31.0869 33.0998C31.0908 33.0246 31.1548 32.9667 31.2301 32.9705C31.3054 32.9743 31.3633 33.0384 31.3595 33.1137L31.3568 33.1683L31.231 33.0255L31.2328 33.0258C31.6273 33.0698 32.0706 32.9631 32.3364 32.6577C32.4008 32.5821 32.4596 32.496 32.4837 32.4066C32.5096 32.3193 32.4954 32.2229 32.4611 32.1247C32.3867 31.9277 32.2805 31.731 32.1918 31.5335L32.1903 31.5302C32.1821 31.5117 32.1903 31.4899 32.2085 31.4817C32.2262 31.4735 32.2467 31.4805 32.2558 31.4973Z" fill="#02020C"/>
<path d="M27.0763 42.8768C27.343 44.5581 27.8983 46.1945 28.7118 47.6921C28.7282 47.7227 28.7171 47.7609 28.6865 47.7773C28.6562 47.7938 28.6183 47.7826 28.6015 47.7524C27.7713 46.2474 27.1995 44.5996 26.919 42.9021C26.912 42.8586 26.9414 42.8177 26.9846 42.8104C27.0281 42.8033 27.069 42.8327 27.0763 42.8759V42.8768Z" fill="#02020C"/>
<path d="M36.777 39.0722L36.6497 47.5918C36.6485 47.6768 36.5785 47.7447 36.4936 47.7432C36.4104 47.742 36.3434 47.6744 36.3422 47.5918L36.2149 39.0722C36.2125 38.917 36.3366 38.7891 36.4918 38.7868C36.647 38.7844 36.7749 38.9085 36.7773 39.0637C36.7773 39.0661 36.7773 39.0699 36.777 39.0722Z" fill="#02020C"/>
<path d="M40.054 48.238C38.7537 47.4237 37.5024 46.5176 36.3961 45.4472C36.3482 45.4007 36.347 45.3246 36.3932 45.2766C36.4385 45.2296 36.5134 45.2281 36.5614 45.2714C37.6844 46.2868 38.948 47.1391 40.2574 47.899C40.3521 47.9534 40.3847 48.0743 40.33 48.1692C40.2756 48.2639 40.1548 48.2965 40.0602 48.2418C40.0587 48.241 40.0557 48.2392 40.054 48.238Z" fill="#02020C"/>
<path d="M24.2848 39.0722L24.1575 47.5918C24.1563 47.6768 24.0864 47.7447 24.0014 47.7432C23.9179 47.742 23.8512 47.6744 23.85 47.5918L23.7227 39.0722C23.7203 38.917 23.8444 38.7891 23.9996 38.7868C24.1549 38.7844 24.2827 38.9085 24.2851 39.0637C24.2848 39.0661 24.2848 39.0699 24.2848 39.0722Z" fill="#02020C"/>
<path d="M19.7941 47.9478C20.5144 47.5315 21.2373 47.132 21.9408 46.7016C22.6417 46.2703 23.3323 45.8167 23.9382 45.2713L23.9394 45.2701C23.9888 45.2255 24.0652 45.2296 24.1099 45.2793C24.1537 45.3278 24.1505 45.4021 24.1037 45.4471C23.4937 46.0307 22.8063 46.5123 22.1113 46.9706C21.4146 47.4272 20.6996 47.8517 19.9978 48.2868C19.9052 48.3447 19.7832 48.3162 19.7253 48.2236C19.6674 48.131 19.6959 48.009 19.7885 47.951C19.79 47.9505 19.7926 47.9487 19.7941 47.9478Z" fill="#02020C"/>
<path d="M33.5972 42.9024C33.3168 44.5999 32.7447 46.2477 31.9147 47.7527C31.898 47.7829 31.8597 47.7941 31.8295 47.7774C31.7992 47.7606 31.788 47.7227 31.8045 47.6924C32.6179 46.1948 33.1733 44.5585 33.4399 42.8771C33.4467 42.8336 33.4876 42.8039 33.5311 42.811C33.5746 42.8177 33.6043 42.8586 33.5972 42.9021V42.9024Z" fill="#02020C"/>
<path d="M1.73483 60.4266L4.38105 55.083C5.01019 54.1837 5.8707 53.4049 6.80735 52.7978C7.28185 52.4962 7.78546 52.2401 8.30348 52.0267L8.69448 51.8773C8.82678 51.8297 8.96789 51.7921 9.10401 51.7488L9.92836 51.4975L16.522 49.4866C16.5314 49.4836 16.5414 49.4795 16.5505 49.4745L16.5543 49.4725L18.7593 48.2659L19.3105 47.9643L19.369 47.9322C19.3905 47.9505 19.4128 47.9699 19.431 47.986L19.5836 48.1242L19.8938 48.4115C20.1201 48.6002 20.3353 48.7689 20.5626 48.9409C21.0136 49.2805 21.4796 49.5998 21.9591 49.8976C22.9175 50.4938 23.9329 51.0047 24.9986 51.3907C26.064 51.7685 27.1809 52.0496 28.3219 52.0828C28.6047 52.0904 28.8943 52.129 29.1718 52.1104L30.0106 52.0849C30.2846 52.0711 30.5456 52.0981 30.8358 52.1113C31.1277 52.1228 31.4079 52.1151 31.6937 52.0987C32.8317 52.0308 33.9501 51.7715 35.0143 51.3852C36.0794 50.9977 37.094 50.4859 38.0524 49.8891C38.9682 49.3137 39.8352 48.6755 40.6401 47.9384L43.443 49.4722L43.4477 49.4748C43.4565 49.4795 43.4657 49.4833 43.4757 49.4863L50.0696 51.4972L50.8939 51.7485C51.03 51.7918 51.1712 51.8294 51.3035 51.877L51.6945 52.0264C52.2125 52.2398 52.7161 52.4962 53.1906 52.7975C53.6627 53.1027 54.109 53.449 54.5203 53.8321C54.7246 54.0249 54.9231 54.2245 55.1077 54.4356C55.29 54.6394 55.4784 54.8769 55.6148 55.0789L58.2628 60.4263H58.7041L55.9594 54.8848C55.7762 54.6094 55.6022 54.3995 55.4037 54.1737C55.21 53.9523 55.003 53.7441 54.7899 53.5431C54.3607 53.1435 53.8959 52.7828 53.4034 52.4644C52.9081 52.1495 52.3845 51.8829 51.8409 51.6592L51.4269 51.5016C51.289 51.4522 51.1521 51.4157 51.0148 51.3722L50.191 51.1212L43.615 49.1156L40.7083 47.5251C40.6357 47.4854 40.5425 47.4945 40.4784 47.5542L40.4749 47.5574C39.677 48.3027 38.7768 48.968 37.8428 49.5536C36.905 50.1375 35.9139 50.637 34.8788 51.0136C33.8445 51.389 32.7635 51.6389 31.6696 51.7041C31.3979 51.72 31.1189 51.7271 30.8526 51.7165C30.585 51.7044 30.2887 51.6753 30.0038 51.6897L29.1677 51.7153C29.0275 51.7235 28.8899 51.7206 28.7538 51.71L28.3437 51.6886C27.2479 51.6577 26.1675 51.3863 25.1324 51.0194C24.0967 50.6443 23.1053 50.146 22.1672 49.5621C21.6977 49.2705 21.2411 48.9577 20.7998 48.6255C20.5814 48.4608 20.3577 48.2842 20.1548 48.1154L19.8505 47.8332L19.6924 47.6903C19.6315 47.6391 19.6001 47.6033 19.4992 47.5348C19.4913 47.5304 19.5019 47.5351 19.4784 47.5233C19.4478 47.5089 19.4049 47.4995 19.3643 47.5039C19.2593 47.5268 19.2914 47.5295 19.2811 47.5295L19.2582 47.5421L19.2123 47.5671L19.1203 47.6174L18.9365 47.7179L18.569 47.919L17.8341 48.3212L16.3818 49.1159L9.80577 51.1215L8.982 51.3725C8.84471 51.416 8.70772 51.4525 8.56983 51.5019L8.15589 51.6595C7.6123 51.8832 7.089 52.1501 6.59333 52.4647C5.60905 53.1074 4.73031 53.892 4.04266 54.876L4.03532 54.8887L4.03267 54.8942L1.29297 60.4266H1.73483ZM19.469 47.8776L19.4716 47.8761C19.4701 47.8737 19.4819 47.872 19.469 47.8776Z" fill="#02020C"/>
<path d="M30.165 54.6561C28.0327 54.6561 26.1244 54.3069 24.5195 53.8359C19.5575 52.3801 16.3574 49.4737 16.3256 49.4446C16.2451 49.3708 16.2401 49.2455 16.3139 49.1653C16.3877 49.0844 16.5132 49.0794 16.5932 49.1532C16.6243 49.1817 19.7677 52.0337 24.6462 53.4611C29.1375 54.7761 36.0677 55.1153 43.5771 49.2717C43.6633 49.2047 43.7876 49.2202 43.8547 49.3064C43.9217 49.3925 43.9061 49.5166 43.82 49.5836C38.8498 53.4514 34.123 54.6561 30.165 54.6561Z" fill="#02020C"/>
<path d="M52.2514 60.4267C51.5211 58.4496 51.5928 56.2411 51.7869 54.1397C51.861 53.338 51.9603 52.5659 52.3555 51.9318C52.3787 51.8945 52.3672 51.8451 52.3299 51.8218C52.2925 51.7986 52.2434 51.8101 52.2202 51.8471C51.8066 52.5113 51.7043 53.3036 51.6281 54.1247C51.4341 56.2255 51.3609 58.4343 52.0806 60.4264H52.2514V60.4267Z" fill="#02020C"/>
<path d="M8.63304 54.1397C8.82707 56.2414 8.8988 58.4496 8.16882 60.4267H8.33963C9.05903 58.4346 8.98612 56.2261 8.79208 54.125C8.71623 53.3039 8.61423 52.5119 8.19999 51.8474C8.17677 51.8104 8.12796 51.7989 8.09033 51.8221C8.05299 51.8454 8.04152 51.8948 8.06475 51.9321C8.45987 52.5665 8.55925 53.3383 8.63304 54.1397Z" fill="#02020C"/>
<path d="M17.5369 50.2337C17.5104 50.2337 17.4846 50.2207 17.4693 50.1963C17.4458 50.1593 17.4572 50.1099 17.4943 50.0864L20.0875 48.4588C20.1249 48.4353 20.174 48.4465 20.1975 48.4841C20.221 48.5212 20.2096 48.5705 20.1725 48.5941L17.5792 50.2216C17.566 50.2298 17.5516 50.2337 17.5369 50.2337Z" fill="#02020C"/>
<path d="M19.357 51.42C19.3326 51.42 19.3085 51.4088 19.2929 51.3879C19.2667 51.3524 19.2744 51.3027 19.3097 51.2762L21.6548 49.5382C21.6901 49.512 21.7401 49.5196 21.7663 49.5549C21.7924 49.5905 21.7851 49.6402 21.7495 49.6663L19.4043 51.4047C19.3899 51.4153 19.3735 51.42 19.357 51.42Z" fill="#02020C"/>
<path d="M21.5366 52.5513C21.516 52.5513 21.4951 52.5433 21.4795 52.5272C21.449 52.4954 21.4495 52.4451 21.4813 52.4143L23.4402 50.5107C23.4713 50.4798 23.5222 50.4804 23.5528 50.5121C23.5833 50.5439 23.5827 50.5942 23.551 50.625L21.5921 52.5286C21.5766 52.5439 21.5566 52.5513 21.5366 52.5513Z" fill="#02020C"/>
<path d="M24.1851 53.572C24.1695 53.572 24.1533 53.5673 24.1395 53.5579C24.1036 53.5326 24.0945 53.4829 24.1198 53.4468L25.5269 51.4329C25.5518 51.3968 25.6015 51.3882 25.638 51.4129C25.6738 51.4382 25.683 51.4879 25.6577 51.5241L24.2506 53.5379C24.2351 53.5602 24.2104 53.572 24.1851 53.572Z" fill="#02020C"/>
<path d="M27.0545 54.2341C27.0433 54.2341 27.0318 54.2318 27.0209 54.2268C26.981 54.2085 26.9636 54.1609 26.9818 54.1212L27.975 51.9695C27.9935 51.9295 28.0408 51.9113 28.0808 51.9304C28.1208 51.9486 28.1381 51.9963 28.1199 52.0359L27.1268 54.1877C27.1133 54.2168 27.0845 54.2341 27.0545 54.2341Z" fill="#02020C"/>
<path d="M42.3663 50.2337C42.3519 50.2337 42.3372 50.2299 42.324 50.2216L39.7307 48.5941C39.6933 48.5706 39.6822 48.5212 39.7057 48.4842C39.7289 48.4468 39.7783 48.4357 39.8156 48.4589L42.4089 50.0864C42.4463 50.1099 42.4574 50.1593 42.4339 50.1964C42.4186 50.2205 42.3927 50.2337 42.3663 50.2337Z" fill="#02020C"/>
<path d="M40.5459 51.42C40.5295 51.42 40.5127 51.415 40.4986 51.4044L38.1534 49.666C38.1181 49.6399 38.1105 49.5899 38.1367 49.5546C38.1631 49.5193 38.2128 49.5117 38.2481 49.5378L40.5933 51.2759C40.6285 51.3021 40.6362 51.3521 40.61 51.3876C40.5941 51.4088 40.57 51.42 40.5459 51.42Z" fill="#02020C"/>
<path d="M38.3648 52.5512C38.3448 52.5512 38.3248 52.5439 38.3093 52.5289L36.3504 50.6253C36.3186 50.5944 36.3181 50.5441 36.3489 50.5124C36.3792 50.4806 36.4301 50.48 36.4615 50.5109L38.4204 52.4145C38.4521 52.4454 38.4527 52.4956 38.4221 52.5274C38.4066 52.5433 38.3857 52.5512 38.3648 52.5512Z" fill="#02020C"/>
<path d="M35.7175 53.572C35.6922 53.572 35.6675 53.5603 35.6519 53.5379L34.2449 51.5241C34.2196 51.4882 34.2284 51.4385 34.2646 51.413C34.301 51.3883 34.3504 51.3965 34.3757 51.4329L35.7828 53.4468C35.808 53.4826 35.7992 53.5323 35.7631 53.5579C35.749 53.5673 35.7331 53.572 35.7175 53.572Z" fill="#02020C"/>
<path d="M32.8482 54.2341C32.8179 54.2341 32.7894 54.2167 32.7759 54.1876L31.7828 52.0359C31.7642 51.9962 31.7819 51.9486 31.8219 51.9303C31.8621 51.9115 31.9092 51.9295 31.9277 51.9694L32.9208 54.1212C32.9393 54.1609 32.9217 54.2085 32.8817 54.2267C32.8708 54.2317 32.8593 54.2341 32.8482 54.2341Z" fill="#02020C"/>
<path d="M30.1461 54.6203C30.102 54.6203 30.0664 54.5845 30.0664 54.5407V51.8839C30.0664 51.8401 30.102 51.8042 30.1461 51.8042C30.1902 51.8042 30.2257 51.8398 30.2257 51.8839V54.5407C30.2257 54.5848 30.1902 54.6203 30.1461 54.6203Z" fill="#02020C"/>
<path d="M39.6875 47.655L40.5906 47.4916L40.1776 47.9528L39.6875 47.655Z" fill="#02020C"/>
<path d="M20.327 47.655L19.4238 47.4916L19.8369 47.9528L20.327 47.655Z" fill="#02020C"/>
<path d="M23.0744 28.2159C23.5847 28.1409 24.0925 28.1233 24.6025 28.116C25.112 28.1107 25.6215 28.1239 26.1301 28.1509C26.196 28.1545 26.2465 28.2106 26.243 28.2765C26.2395 28.3423 26.1833 28.3929 26.1175 28.3894C26.116 28.3894 26.1139 28.3891 26.1125 28.3891C25.6097 28.3409 25.1056 28.3065 24.6008 28.2903C24.0975 28.2756 23.588 28.2729 23.0917 28.3244L23.0879 28.3247C23.0576 28.3279 23.0309 28.3059 23.0276 28.2756C23.0247 28.2465 23.0456 28.2203 23.0744 28.2159Z" fill="#02020C"/>
<path d="M33.6642 28.2159C34.1746 28.1409 34.6823 28.1233 35.1924 28.116C35.7019 28.1107 36.2114 28.1239 36.72 28.1509C36.7858 28.1545 36.8364 28.2106 36.8328 28.2765C36.8293 28.3423 36.7732 28.3929 36.7073 28.3894C36.7058 28.3894 36.7038 28.3891 36.7023 28.3891C36.1996 28.3409 35.6954 28.3065 35.1906 28.2903C34.6873 28.2756 34.1778 28.2729 33.6816 28.3244L33.6777 28.3247C33.6475 28.3279 33.6207 28.3059 33.6175 28.2756C33.6145 28.2465 33.6351 28.2203 33.6642 28.2159Z" fill="#02020C"/>
<path d="M24.7129 28.3061C25.591 28.3061 26.3028 27.259 26.3028 25.9674C26.3028 24.6758 25.591 23.6287 24.7129 23.6287C23.8349 23.6287 23.123 24.6758 23.123 25.9674C23.123 27.259 23.8349 28.3061 24.7129 28.3061Z" fill="#02020C"/>
<path d="M25.8721 26.0795C26.1769 26.0795 26.424 25.7583 26.424 25.3621C26.424 24.9659 26.1769 24.6448 25.8721 24.6448C25.5674 24.6448 25.3203 24.9659 25.3203 25.3621C25.3203 25.7583 25.5674 26.0795 25.8721 26.0795Z" fill="#F4EFE9"/>
<path d="M35.084 28.3061C35.9621 28.3061 36.6739 27.259 36.6739 25.9674C36.6739 24.6758 35.9621 23.6287 35.084 23.6287C34.206 23.6287 33.4941 24.6758 33.4941 25.9674C33.4941 27.259 34.206 28.3061 35.084 28.3061Z" fill="#02020C"/>
<path d="M36.795 25.3621C36.795 25.7584 36.5481 26.0794 36.2432 26.0794C35.9387 26.0794 35.6914 25.7584 35.6914 25.3621C35.6914 24.9658 35.9384 24.6447 36.2432 24.6447C36.5478 24.6447 36.795 24.966 36.795 25.3621Z" fill="#F4EFE9"/>
<path d="M28.618 35.0673C29.3892 35.4812 30.3267 35.6076 31.2007 35.4007C31.2216 35.3957 31.2422 35.4086 31.2472 35.4292C31.2519 35.4489 31.2401 35.4689 31.221 35.475C30.3444 35.7461 29.3601 35.6888 28.5028 35.3013C28.4369 35.2719 28.4078 35.1946 28.4372 35.1287C28.4666 35.0629 28.5439 35.0335 28.6098 35.0632C28.6124 35.0643 28.6154 35.0661 28.618 35.0673Z" fill="#02020C"/>
<path d="M39.9041 21.4211C39.2911 21.0283 38.7043 20.7105 38.0907 20.4847C37.9455 20.43 37.7659 20.366 37.6254 20.3195C37.4801 20.2742 37.3614 20.2487 37.2711 20.2513C37.1723 20.251 37.1506 20.2613 36.9421 20.3295C36.7751 20.3857 36.6093 20.433 36.4379 20.485C35.7547 20.6905 35.0603 20.859 34.3615 21.0124L33.3134 21.2429C32.9632 21.3167 32.6163 21.4023 32.2591 21.4525L32.4191 21.3426C32.2086 21.5422 31.9899 21.7354 31.7314 21.8982C31.677 21.9326 31.605 21.9162 31.5706 21.8618C31.5518 21.8318 31.5483 21.7962 31.558 21.7651C31.6488 21.4734 31.7796 21.2124 31.9187 20.9578C31.936 20.926 31.9622 20.9025 31.9925 20.8881L32.0786 20.8475C32.4053 20.694 32.7422 20.5759 33.0759 20.4459L34.0792 20.0652C34.7481 19.8112 35.4216 19.5725 36.106 19.3705C36.2765 19.3205 36.4523 19.2653 36.6273 19.2194C36.7205 19.1956 36.7804 19.1724 36.9368 19.1424C37.0735 19.1183 37.2144 19.1136 37.3467 19.1253C37.6133 19.1521 37.84 19.2329 38.0249 19.3211C38.2148 19.4096 38.3595 19.4946 38.5344 19.5972C39.1985 20.0073 39.7586 20.5864 40.0711 21.28C40.0969 21.3373 40.0714 21.4046 40.014 21.4305C39.9779 21.4467 39.9376 21.4425 39.9064 21.4229L39.9041 21.4211Z" fill="#02020C"/>
<path d="M20.0626 21.2797C20.3749 20.5859 20.9352 20.0068 21.5993 19.5969C21.7743 19.4943 21.9192 19.4094 22.1088 19.3209C22.2937 19.233 22.5204 19.1518 22.7871 19.1251C22.9196 19.1133 23.0602 19.1177 23.1969 19.1421C23.3533 19.1724 23.4133 19.1953 23.5064 19.2191C23.6811 19.2653 23.8572 19.3206 24.0277 19.3703C24.7121 19.5722 25.3853 19.811 26.0545 20.065L27.0579 20.4457C27.3915 20.5756 27.7285 20.6938 28.0551 20.8473L28.1412 20.8878C28.1739 20.9031 28.1991 20.9281 28.2153 20.9575C28.3544 21.2121 28.4849 21.4732 28.5757 21.7648C28.5948 21.8263 28.5604 21.8915 28.4993 21.9106C28.4655 21.9212 28.4302 21.9153 28.4026 21.898C28.1441 21.7354 27.9251 21.5423 27.7146 21.3424L27.8749 21.4523C27.5177 21.402 27.1708 21.3165 26.8203 21.2427L25.7722 21.0122C25.0734 20.8587 24.379 20.6903 23.6958 20.4848C23.5244 20.433 23.3586 20.3854 23.1916 20.3293C22.9834 20.2611 22.9614 20.2508 22.8629 20.2511C22.7726 20.2484 22.6539 20.274 22.5086 20.3193C22.3681 20.3657 22.1885 20.4298 22.0433 20.4845C21.4297 20.7103 20.8429 21.0281 20.2299 21.4208L20.2282 21.422C20.1752 21.4558 20.105 21.4405 20.0709 21.3876C20.0491 21.3544 20.0476 21.3132 20.0626 21.2797Z" fill="#02020C"/>
<path d="M45.6651 12.5138C45.5655 12.1184 45.2371 11.8279 44.9202 11.5709C42.993 10.0075 40.8587 8.70071 38.5917 7.69173C38.8413 7.5612 39.1109 7.46389 39.3846 7.40156C40.0317 7.25427 40.7031 7.27044 41.3667 7.2872C40.1657 6.65512 38.7478 6.45344 37.4151 6.70334C37.3502 6.37612 37.1632 6.06596 36.9195 5.83136C36.5596 5.48533 36.096 5.27131 35.6421 5.06405C35.5013 4.99966 35.3566 4.93439 35.2023 4.92322C35.3978 4.93763 35.5915 5.58352 35.7229 6.13916C35.7176 6.13476 35.7132 6.12976 35.7079 6.12564C35.3778 5.85576 34.9924 5.66202 34.599 5.49709C34.5928 5.49445 34.5864 5.49239 34.5802 5.48974C33.7267 4.64187 32.507 4.11152 31.3137 3.81488C26.6204 2.64744 21.4062 4.1712 17.9118 7.51475C16.0494 9.29663 14.6794 11.5642 13.8747 14.0075C13.4914 15.1712 13.2412 16.4824 12.9875 17.6918C12.6841 19.1389 12.5491 20.6215 12.5888 22.0993C12.5809 21.8095 13.8221 21.1409 14.0561 21.0081C14.5668 20.7182 15.2133 20.3695 15.7986 20.3245C15.7036 20.7385 15.3738 21.1415 15.2353 21.571C15.7424 21.4578 16.2646 21.3317 16.7552 21.15C16.7688 21.2509 16.7817 21.352 16.7955 21.4531C16.8287 21.6986 16.9025 22.1793 17.0016 22.7993C15.9791 24.4968 14.6705 26.0226 13.1403 27.2818C14.3131 27.4309 15.4943 27.1278 16.6197 26.7664C16.951 26.66 17.28 26.548 17.6075 26.4316C17.9709 28.5301 18.3551 30.6021 18.5357 31.1942C18.7382 30.9993 18.5509 28.4178 18.3543 26.1532C20.4707 25.3459 22.5095 24.3437 24.4895 23.2294C26.6372 22.8678 28.6742 21.9194 30.4534 20.6529C31.7964 19.6968 33.0035 18.5618 34.1069 17.3396C34.4817 16.9242 35.0765 16.4109 35.1376 15.8053C35.2817 15.6659 35.4207 15.5187 35.5239 15.3508C36.2166 15.3587 36.796 15.9191 37.2196 16.4832C38.9742 18.8202 39.7471 21.8706 39.3176 24.7608C39.9555 22.3263 40.0966 19.763 39.7297 17.2732C39.8985 17.2952 40.064 17.3335 40.2275 17.3793C40.2295 17.3952 40.231 17.4114 40.2366 17.4267C40.263 17.5028 40.3289 17.5578 40.3927 17.6069C40.7161 17.8571 41.0677 18.0717 41.3684 18.3489C41.8982 18.8369 42.2331 19.4884 42.4547 20.1808C42.4915 23.8621 42.174 28.369 42.0781 30.5319C43.7598 26.727 45.265 17.3285 45.6766 13.1891C45.6989 12.9642 45.7207 12.7334 45.6651 12.5138ZM17.7201 21.4823C17.7022 21.3547 17.7042 21.2059 17.743 21.0142C17.773 20.8661 17.808 20.7179 17.8459 20.5703C18.0138 20.4427 18.1735 20.3036 18.3125 20.1387C18.1349 20.595 17.9359 21.0427 17.7201 21.4823Z" fill="#02020C"/>
</g>
</svg>
