<svg width="25" height="25" viewBox="0 0 25 25" fill="none" xmlns="http://www.w3.org/2000/svg">
<path fill-rule="evenodd" clip-rule="evenodd" d="M12.5 0C19.4044 0 25 5.59561 25 12.5C25 19.4044 19.4044 25 12.5 25C5.59561 25 0 19.4044 0 12.5C0 5.59561 5.59561 0 12.5 0ZM14.9447 7.96622C15.5028 7.39826 16.4115 7.39332 16.9745 7.96128C17.5375 8.5243 17.5375 9.44291 16.9795 10.0109L14.5249 12.5L16.9795 14.9941C17.5326 15.5571 17.5277 16.4708 16.9646 17.0338C16.4016 17.5968 15.4929 17.5968 14.9397 17.0288L12.5 14.5545L10.0553 17.0338C9.49723 17.6017 8.5885 17.6067 8.02548 17.0387C7.46247 16.4757 7.46246 15.5571 8.02054 14.9891L10.4751 12.5L8.0156 10.0059C7.46246 9.44291 7.4674 8.52924 8.03042 7.96622C8.59344 7.4032 9.50217 7.4032 10.0553 7.97116L12.4951 10.4455L14.9447 7.96622Z" fill="#FF4141"/>
</svg>
