<svg width="25" height="25" viewBox="0 0 25 25" fill="none" xmlns="http://www.w3.org/2000/svg">
<g clip-path="url(#clip0_355_4066)">
<path fill-rule="evenodd" clip-rule="evenodd" d="M12.5 0C19.4036 0 25 5.59644 25 12.5C25 19.4036 19.4036 25 12.5 25C5.59644 25 0 19.4036 0 12.5C0 5.59644 5.59644 0 12.5 0ZM19.1417 6.25H13.6729V11.7188H15.2354L15.2362 8.69321C16.4453 9.56289 17.1875 10.9664 17.1875 12.5C17.1875 15.0888 15.0888 17.1875 12.5 17.1875C9.91117 17.1875 7.8125 15.0888 7.8125 12.5C7.8125 10.1612 9.53625 8.18876 11.8279 7.86022L11.6062 6.31354L11.4078 6.34522C8.44891 6.86655 6.25 9.44903 6.25 12.5C6.25 15.9518 9.04822 18.75 12.5 18.75C15.9518 18.75 18.75 15.9518 18.75 12.5C18.75 10.67 17.9565 8.97788 16.6342 7.81194L19.1417 7.8125V6.25Z" fill="#202327"/>
</g>
<defs>
<clipPath id="clip0_355_4066">
<rect width="25" height="25" fill="white"/>
</clipPath>
</defs>
</svg>
