<svg width="60" height="60" viewBox="0 0 60 60" fill="none" xmlns="http://www.w3.org/2000/svg">
<rect x="2.5" y="2.5" width="55" height="55" rx="27.5" fill="#FEFEFE"/>
<rect x="2.5" y="2.5" width="55" height="55" rx="27.5" stroke="url(#paint0_linear_164_2454)" stroke-width="5"/>
<path d="M30.0817 14.4004C28.9062 14.4008 27.7789 14.8644 26.9476 15.6895C26.1164 16.5146 25.6492 17.6336 25.6489 18.8005V20.7994H23.6351C23.0526 20.7989 22.4757 20.9124 21.9374 21.1335C21.3991 21.3546 20.91 21.6789 20.4981 22.0878C20.0861 22.4966 19.7595 22.9822 19.5368 23.5165C19.3141 24.0508 19.1997 24.6235 19.2003 25.2018V29.6003H25.6478V33.5981H23.6341C22.4582 33.5979 21.3304 34.0614 20.4987 34.8865C19.6671 35.7117 19.1996 36.8309 19.1992 37.9981V45.5999H23.6362C24.2182 45.5997 24.7944 45.4856 25.332 45.2642C25.8696 45.0429 26.3579 44.7186 26.7692 44.3099C27.1805 43.9012 27.5067 43.416 27.7291 42.882C27.9515 42.3481 28.0657 41.7761 28.0654 41.1985H28.0711V38.2943L28.0592 38.2958V19.7935L28.069 19.7958V18.8013C28.07 18.2709 28.2823 17.7626 28.6596 17.3871C29.0369 17.0116 29.5485 16.7994 30.0827 16.797H37.7838V18.8013C37.7821 19.3313 37.5691 19.8392 37.1912 20.2138C36.8134 20.5884 36.3015 20.7992 35.7674 20.8001H28.9804V23.1993H35.7664C36.942 23.1994 38.0694 22.7359 38.9007 21.9109C39.732 21.0859 40.1991 19.9669 40.1992 18.8V14.3999L30.0817 14.4004ZM25.6489 27.2009H21.6198V25.202C21.6207 24.6711 21.8333 24.1621 22.2111 23.7862C22.5889 23.4104 23.1013 23.1982 23.6362 23.1962H25.6499L25.6489 27.2009ZM25.6489 41.2007C25.648 41.7306 25.4356 42.2389 25.0582 42.6137C24.6808 42.9888 24.1691 43.2002 23.6351 43.2015H21.6188V37.9994C21.6193 37.469 21.832 36.9605 22.2101 36.5856C22.5882 36.2108 23.1008 36.0003 23.6351 36.0005H25.6489V41.2007ZM28.9804 29.6H34.0663V31.601C34.0644 32.1309 33.8512 32.6386 33.4734 33.0131C33.0957 33.3876 32.5839 33.5986 32.05 33.5998H28.9804V36.0005H32.051C32.6333 36.0008 33.2098 35.8872 33.7478 35.6662C34.2857 35.4452 34.7745 35.1211 35.1862 34.7125C35.5979 34.3038 35.9244 33.8186 36.1471 33.2847C36.3697 32.7507 36.4842 32.1784 36.4839 31.6005H36.4859V27.2004H28.9804V29.6Z" fill="black" fill-opacity="0.7"/>
<defs>
<linearGradient id="paint0_linear_164_2454" x1="30" y1="0" x2="30" y2="60" gradientUnits="userSpaceOnUse">
<stop stop-color="#5F6C85"/>
<stop offset="1" stop-color="#3F444D"/>
</linearGradient>
</defs>
</svg>
